<?xml version="1.0" encoding="utf-8"?>
<!-- Generator: Adobe Illustrator 17.1.0, SVG Export Plug-In . SVG Version: 6.00 Build 0)  -->
<!DOCTYPE svg PUBLIC "-//W3C//DTD SVG 1.1//EN" "http://www.w3.org/Graphics/SVG/1.1/DTD/svg11.dtd">
<svg version="1.1" id="Layer_1" xmlns="http://www.w3.org/2000/svg" xmlns:xlink="http://www.w3.org/1999/xlink" x="0px" y="0px"
	 viewBox="0 0 332.667 158.333" enable-background="new 0 0 332.667 158.333" xml:space="preserve">
<g>
	<g>
		<path fill-rule="evenodd" clip-rule="evenodd" fill="#004975" d="M212.728,40.02c0.544,0.766,1.193,1.361,1.744,2.043
			c0.541,0.67,1.074,1.346,1.625,2.008c0.74,0.889,1.465,1.794,2.249,2.644c1.053,1.143,2.082,2.307,3.237,3.36
			c1.417,1.29,2.943,2.422,4.546,3.456c1.581,1.02,3.265,1.839,5.02,2.524c1.366,0.533,2.73,1.072,4.07,1.676
			c2.285,1.031,4.449,2.264,6.517,3.674c1.388,0.946,2.731,1.951,4.005,3.05c0.872,0.753,1.705,1.547,2.568,2.306
			c0.882,0.776,1.66,1.649,2.448,2.505c1.471,1.598,2.84,3.284,4.081,5.077c1.261,1.82,2.419,3.695,3.438,5.659
			c1.113,2.144,2.078,4.348,2.883,6.629c0.59,1.671,1.088,3.367,1.498,5.086c0.297,1.242,0.515,2.502,0.689,3.771
			c0.196,1.426,0.327,2.852,0.416,4.289c0.093,1.485,0.097,2.969,0.039,4.446c-0.061,1.522-0.218,3.044-0.45,4.558
			c-0.335,2.188-0.806,4.338-1.441,6.458c-0.641,2.139-1.432,4.216-2.385,6.235c-0.791,1.675-1.504,3.388-2.589,4.909
			c-1.111,1.557-2.188,3.136-3.403,4.62c-1.295,1.582-2.688,3.072-4.175,4.468c-1.451,1.362-2.994,2.619-4.616,3.781
			c-2.34,1.677-4.83,3.089-7.432,4.307c-1.459,0.683-2.958,1.272-4.478,1.811c-1.781,0.632-3.599,1.138-5.436,1.563
			c-1.45,0.336-2.919,0.593-4.404,0.762c-1.407,0.161-2.814,0.26-4.228,0.334c-0.862,0.046-1.722,0.072-2.58,0.048
			c-1.363-0.039-2.73-0.092-4.083-0.246c-2.252-0.255-4.483-0.636-6.692-1.177c-2.592-0.635-5.104-1.476-7.566-2.493
			c-3.063-1.265-5.926-2.889-8.64-4.776c-1.261-0.877-2.456-1.844-3.625-2.847c-1.352-1.161-2.6-2.426-3.83-3.706
			c-1.039-1.082-1.984-2.254-2.893-3.451c-1.116-1.468-2.133-3.004-3.054-4.599c-0.972-1.684-1.835-3.424-2.586-5.223
			c-0.531-1.271-1.017-2.555-1.435-3.866c-0.631-1.979-1.135-3.987-1.467-6.04c-0.205-1.27-0.353-2.544-0.491-3.822
			c-0.24-2.219-0.163-4.442-0.125-6.66c0.021-1.227,0.194-2.458,0.362-3.684c0.264-1.936,0.659-3.838,1.156-5.724
			c0.435-1.648,0.995-3.255,1.597-4.848c0.754-1.994,1.675-3.907,2.685-5.783c0.713-1.323,1.518-2.583,2.369-3.817
			c0.803-1.165,1.654-2.291,2.568-3.374c1.136-1.348,2.345-2.626,3.618-3.84c1.05-1.001,2.169-1.924,3.296-2.841
			c1.487-1.21,3.06-2.293,4.661-3.34c1.221-0.799,2.487-1.524,3.773-2.214c2.269-1.218,4.606-2.315,6.795-3.677
			c1.722-1.071,3.385-2.233,4.991-3.481c1.987-1.543,3.138-3.573,3.845-5.939c0.472-1.582,0.8-3.186,1.037-4.814
			C212.53,41.234,212.624,40.675,212.728,40.02z M181.854,71.716c-0.077,0.031-0.088,0.096-0.087,0.168
			c-0.106,0.106-0.212,0.212-0.318,0.318c-0.176,0.003-0.172,0.126-0.169,0.25c-0.025,0.025-0.05,0.05-0.075,0.075
			c-0.202,0.018-0.313,0.128-0.33,0.33c-0.008,0.027-0.007,0.054,0.005,0.079l-0.002,0.001c-0.133,0.028-0.186,0.109-0.161,0.242
			l-0.001,0.001c-0.416,0.245-0.604,0.69-0.892,1.044c-0.489,0.601-0.922,1.248-1.379,1.875c-0.16,0.051-0.181,0.177-0.173,0.32
			l0.001-0.002c-0.173,0.003-0.164,0.127-0.164,0.245l0.001-0.002c-0.196,0.022-0.238,0.203-0.321,0.33
			c-1.36,2.064-2.492,4.249-3.467,6.518c-0.935,2.177-1.725,4.405-2.331,6.696c-0.484,1.828-0.867,3.674-1.117,5.552
			c-0.19,1.425-0.362,2.85-0.383,4.284c-0.031,2.127-0.045,4.254,0.221,6.376c0.135,1.077,0.251,2.157,0.446,3.223
			c0.456,2.485,1.1,4.92,1.962,7.299c0.842,2.323,1.857,4.563,3.054,6.72c0.205,0.369,0.35,0.793,0.718,1.057
			c-0.009,0.173,0.079,0.306,0.163,0.447c0.776,1.294,1.631,2.535,2.542,3.738c0.984,1.299,2.017,2.558,3.151,3.727
			c1.071,1.103,2.158,2.191,3.329,3.194c1.187,1.016,2.408,1.983,3.688,2.877c2.494,1.742,5.123,3.241,7.919,4.451
			c2.341,1.013,4.738,1.862,7.206,2.497c2.38,0.613,4.789,1.07,7.24,1.325c1.621,0.168,3.245,0.216,4.868,0.304
			c0.891,0.049,1.777-0.08,2.666-0.105c0.425-0.012,0.884,0.043,1.302-0.139c0.349-0.009,0.695-0.028,1.045-0.064
			c1.897-0.199,3.764-0.554,5.619-0.989c3.205-0.751,6.307-1.811,9.289-3.198c3.171-1.475,6.16-3.259,8.903-5.446
			c1.857-1.481,3.608-3.065,5.22-4.814c1.261-1.368,2.429-2.805,3.526-4.301c0.302-0.411,0.708-0.779,0.813-1.319l-0.003,0.003
			c0.179,0.001,0.169-0.125,0.165-0.246l-0.003,0.003c0.12,0.007,0.164-0.057,0.157-0.168c0.015-0.05,0.016-0.111,0.046-0.148
			c0.734-0.888,1.295-1.887,1.814-2.907c0.224-0.44,0.39-0.91,0.657-1.33c0.14-0.082,0.173-0.238,0.233-0.367
			c0.34-0.746,0.67-1.497,1.002-2.247c0.75-1.699,1.344-3.455,1.851-5.239c0.546-1.92,0.953-3.87,1.247-5.848
			c0.231-1.553,0.359-3.113,0.451-4.676c0.064-1.09,0.01-2.187,0.009-3.281c-0.144-0.916-0.122-1.845-0.227-2.766
			c-0.142-1.239-0.308-2.475-0.536-3.699c-0.461-2.474-1.126-4.894-1.979-7.265c-0.767-2.133-1.675-4.199-2.711-6.214
			c-1.235-2.401-2.667-4.676-4.284-6.835c-0.218-0.292-0.356-0.665-0.727-0.826c-0.134-0.094-0.084-0.266-0.184-0.391
			c-1.196-1.493-2.49-2.899-3.814-4.277c-0.671-0.698-1.418-1.323-2.13-1.982c-0.898-0.832-1.839-1.614-2.81-2.357
			c-1.613-1.235-3.29-2.375-5.046-3.403c-1.586-0.928-3.226-1.738-4.918-2.446c-2.505-1.047-5.087-1.92-7.415-3.365
			c-2.041-1.267-3.968-2.675-5.701-4.341c-1.293-1.243-2.477-2.588-3.641-3.952c-0.838-0.981-1.668-1.967-2.488-2.963
			c-0.349-0.424-0.65-0.9-1.103-1.277c-0.207,1.069-0.361,2.102-0.598,3.12c-0.483,2.072-1.145,4.067-2.418,5.808
			c-0.076,0.104-0.123,0.207-0.114,0.335c-0.047,0.047-0.094,0.094-0.142,0.141c-0.184,0.002-0.18,0.133-0.18,0.261
			c-0.156,0.156-0.313,0.313-0.469,0.469c-0.109-0.006-0.17,0.043-0.177,0.154c-0.377,0.34-0.731,0.712-1.136,1.016
			c-1.505,1.13-3.023,2.243-4.636,3.218c-0.695,0.42-1.382,0.851-2.116,1.207c-0.68,0.33-1.298,0.782-2.004,1.068
			c-0.382,0.139-0.774,0.259-1.061,0.574c-1.195,0.635-2.397,1.257-3.582,1.91c-1.046,0.577-2.013,1.282-3.011,1.938
			c-2.348,1.543-4.555,3.263-6.631,5.155c-0.113-0.001-0.17,0.054-0.169,0.168c-0.647,0.647-1.295,1.294-1.942,1.942
			c-0.114-0.001-0.168,0.056-0.168,0.169c-0.079,0.079-0.158,0.158-0.237,0.237c-0.077,0.031-0.089,0.096-0.088,0.168
			c-0.133,0.133-0.266,0.266-0.4,0.4c-0.113-0.001-0.168,0.054-0.166,0.167L181.854,71.716z"/>
		<path fill-rule="evenodd" clip-rule="evenodd" fill="#0073B9" d="M210.165,51.357c-0.008-0.127,0.038-0.23,0.114-0.335
			c1.273-1.741,1.934-3.736,2.418-5.808c0.237-1.018,0.391-2.051,0.598-3.12c0.453,0.377,0.754,0.854,1.103,1.277
			c0.82,0.996,1.65,1.982,2.488,2.963c1.165,1.363,2.348,2.709,3.641,3.952c1.733,1.666,3.66,3.074,5.701,4.341
			c2.329,1.445,4.91,2.317,7.415,3.365c1.692,0.708,3.332,1.518,4.918,2.446c1.756,1.028,3.432,2.168,5.046,3.403
			c0.971,0.743,1.912,1.525,2.81,2.357c0.712,0.659,1.459,1.284,2.13,1.982c1.323,1.378,2.617,2.784,3.814,4.277
			c0.1,0.125,0.05,0.297,0.183,0.391c-0.138,0.286,0.115,0.469,0.184,0.701c0.28,0.931,0.466,1.885,0.506,2.854
			c0.077,1.86,0.034,3.71-0.304,5.559c-0.127,0.697-0.246,1.405-0.391,2.1c-0.333,1.587-0.878,3.109-1.562,4.58
			c-0.465,0.998-0.971,1.972-1.521,2.931c-0.576,1.005-1.218,1.959-1.876,2.904c-0.734,1.054-1.579,2.026-2.42,2.996
			c-0.758,0.874-1.535,1.735-2.331,2.574c-0.973,1.027-2.04,1.958-3.069,2.928c-1.135,1.07-2.343,2.054-3.516,3.079
			c-0.732,0.64-1.514,1.224-2.292,1.809c-1.804,1.358-3.582,2.751-5.442,4.033c-1.2-0.816-2.398-1.632-3.599-2.446
			c-1.845-1.251-3.744-2.417-5.629-3.605c-1.727-1.089-3.543-1.981-5.458-2.673c-1.68-0.607-3.412-1.016-5.211-0.925
			c-0.957,0.048-1.916,0.105-2.872,0.213c-0.87,0.098-1.73,0.232-2.588,0.403c-1.419,0.282-2.682,0.928-3.92,1.639
			c-2.038,1.169-3.969,2.469-5.408,4.379c-0.893,1.185-1.633,2.459-2.242,3.811c-0.429,0.952-0.661,1.971-0.923,2.97
			c-0.203,0.774-0.351,1.598-0.276,2.409c0.05,0.538,0.061,1.071,0.062,1.607c0.001,0.564,0.119,1.107,0.256,1.646
			c0.217,0.856,0.567,1.668,0.916,2.475c0.424,0.982,0.965,1.901,1.789,2.607c0.731,0.626,1.498,1.21,2.323,1.712
			c-0.626,0.108-1.262,0.116-1.891,0.234c-0.735,0.139-1.483,0.215-2.233,0.27c-0.605,0.044-1.216,0.024-1.813,0.097
			c-1.031,0.126-2.057,0.008-3.085,0.031c-0.451,0.01-0.903-0.107-1.357-0.133c-0.631-0.036-1.231-0.233-1.849-0.334
			c-0.967-0.159-1.889-0.497-2.797-0.895c-0.829-0.364-1.6-0.801-2.33-1.319c-0.547-0.388-1.026-0.858-1.482-1.349
			c-0.368-0.264-0.513-0.688-0.718-1.057c-1.198-2.157-2.213-4.398-3.054-6.72c-0.862-2.379-1.506-4.815-1.962-7.299
			c-0.195-1.065-0.311-2.146-0.446-3.223c-0.267-2.121-0.252-4.248-0.221-6.376c0.021-1.434,0.194-2.86,0.383-4.284
			c0.25-1.877,0.633-3.724,1.117-5.552c0.606-2.291,1.396-4.52,2.331-6.696c0.975-2.268,2.107-4.454,3.467-6.518
			c0.083-0.126,0.125-0.308,0.321-0.33c-0.025,0.075-0.042,0.153-0.075,0.225c-0.463,1.011-0.917,2.024-0.816,3.179
			c0.05,0.571,0.25,1.068,0.752,1.393c0.709,0.459,1.485,0.481,2.303,0.414c1.554-0.128,2.996-0.646,4.422-1.208
			c2.154-0.849,4.213-1.903,6.257-2.989c1.914-1.017,3.757-2.147,5.575-3.32c1.829-1.18,3.575-2.478,5.295-3.814
			c1.421-1.104,2.756-2.304,4.066-3.53c0.727-0.681,1.425-1.394,2.093-2.139c0.733-0.817,1.463-1.634,2.146-2.493
			c0.874-1.1,1.708-2.23,2.286-3.519c0.456-1.015,0.652-2.062-0.391-2.812c-0.207-0.149-0.308-0.441-0.048-0.691
			c0.143-0.138,0.244-0.308,0.407-0.434c1-0.78,1.799-1.699,2.191-2.95c0.276-0.881,0.484-1.772,0.37-2.679
			c-0.165-1.306-0.399-2.608-0.733-3.883c-0.149-0.568-0.199-1.169-0.491-1.696c-0.11-0.393-0.221-0.787-0.348-1.24
			c-0.036,0.223-0.114,0.36-0.121,0.526c-0.039,0.993-0.255,1.961-0.457,2.93c-0.253,1.212-0.673,2.371-1.257,3.458
			C211.16,50.091,210.742,50.784,210.165,51.357z"/>
		<path fill-rule="evenodd" clip-rule="evenodd" fill="#FEFEFE" d="M195.73,128.117c-0.825-0.502-1.592-1.085-2.323-1.712
			c-0.824-0.706-1.365-1.625-1.789-2.607c-0.349-0.808-0.7-1.619-0.916-2.475c-0.136-0.539-0.255-1.082-0.256-1.646
			c-0.001-0.536-0.012-1.069-0.062-1.607c-0.075-0.812,0.073-1.635,0.276-2.409c0.262-0.999,0.494-2.018,0.923-2.97
			c0.609-1.352,1.349-2.626,2.242-3.811c1.439-1.91,3.37-3.21,5.408-4.379c1.239-0.71,2.502-1.357,3.92-1.639
			c0.858-0.17,1.717-0.305,2.588-0.403c0.956-0.108,1.915-0.164,2.872-0.213c1.799-0.091,3.531,0.318,5.211,0.925
			c1.914,0.692,3.731,1.584,5.458,2.673c1.885,1.188,3.785,2.354,5.629,3.605c1.2,0.814,2.399,1.631,3.599,2.446
			c0.746,0.484,1.479,0.992,2.322,1.308c0.711,0.267,1.397,0.629,2.161,0.709c1.661,0.173,3.142-0.439,4.588-1.146
			c0.899-0.44,1.736-0.989,2.575-1.531c1.569-1.015,3.143-2.022,4.694-3.064c1.857-1.247,3.645-2.604,5.684-3.558
			c1.321-0.618,2.65-1.026,4.162-0.696c1.642,0.358,3.01,1.051,3.923,2.502c1.089,1.733,1.556,3.647,1.632,5.672
			c0.041,1.072-0.107,2.137-0.148,3.207c-0.031,0.1-0.08,0.198-0.092,0.3c-0.166,1.498-0.573,2.936-1.031,4.366
			c-0.232,0.725-0.536,1.422-0.764,2.147c-0.267,0.42-0.433,0.89-0.657,1.33c-0.519,1.02-1.08,2.019-1.814,2.907
			c-0.03,0.037-0.031,0.098-0.046,0.148c-0.073,0.037-0.133,0.086-0.157,0.168l0.003-0.003c-0.105,0.048-0.101,0.17-0.165,0.246
			l0.003-0.003c-0.635,0.531-1.158,1.18-1.809,1.697c-0.597,0.474-1.233,0.842-2.008,0.917c-0.081-0.003-0.164-0.02-0.242-0.007
			c-0.962,0.164-1.902,0.143-2.786-0.336c-0.573-0.311-1.081-0.706-1.575-1.135c-0.93-0.806-1.79-1.682-2.618-2.583
			c-0.662-0.72-1.355-1.409-2.036-2.108c-1.017-1.045-2.121-2.003-3.219-2.966c-1.088-0.953-2.22-1.809-3.575-2.372
			c-0.956-0.398-1.95-0.609-2.922-0.407c-1.649,0.342-3.201,1.008-4.652,1.884c-1.486,0.897-2.972,1.794-4.467,2.676
			c-1.2,0.708-2.413,1.395-3.62,2.091c-1.288,0.742-2.56,1.513-3.868,2.217c-1.239,0.667-2.522,1.249-3.816,1.804
			c-2.581,1.107-5.252,1.768-8.079,1.718c-0.914-0.016-1.827-0.017-2.742-0.072c-0.719-0.043-1.426-0.145-2.125-0.295
			C197.963,129.353,196.835,128.759,195.73,128.117z"/>
		<path fill-rule="evenodd" clip-rule="evenodd" fill="#00598D" d="M195.73,128.117c1.105,0.642,2.233,1.236,3.493,1.508
			c0.698,0.151,1.405,0.252,2.125,0.295c0.914,0.055,1.827,0.056,2.742,0.072c2.827,0.05,5.498-0.61,8.079-1.718
			c1.294-0.555,2.577-1.137,3.816-1.804c1.308-0.704,2.58-1.475,3.868-2.217c1.207-0.696,2.42-1.383,3.62-2.091
			c1.495-0.882,2.981-1.779,4.467-2.676c1.451-0.876,3.003-1.542,4.652-1.884c0.972-0.201,1.966,0.01,2.922,0.407
			c1.355,0.563,2.487,1.419,3.575,2.372c1.098,0.962,2.202,1.921,3.219,2.966c0.681,0.699,1.375,1.388,2.036,2.108
			c0.827,0.901,1.688,1.778,2.618,2.583c0.494,0.428,1.002,0.824,1.575,1.135c0.884,0.479,1.824,0.5,2.786,0.336
			c0.078-0.013,0.161,0.004,0.242,0.007c-0.352,0.521-0.777,1.008-1.216,1.425c-0.679,0.644-1.251,1.39-1.984,1.983
			c-0.64,0.518-1.141,1.187-1.791,1.706c-0.908,0.725-1.773,1.502-2.667,2.244c-0.66,0.547-1.342,1.078-2.031,1.578
			c-0.672,0.487-1.417,0.9-2.114,1.367c-0.947,0.633-1.942,1.189-2.909,1.787c-0.81,0.501-1.718,0.851-2.568,1.303
			c-0.52,0.277-1.094,0.509-1.648,0.751c-0.607,0.265-1.246,0.459-1.861,0.707c-0.866,0.35-1.729,0.705-2.619,0.991
			c-0.955,0.307-1.931,0.527-2.907,0.75c-0.779,0.178-1.558,0.36-2.344,0.507c-0.65,0.122-1.321,0.145-1.938,0.419
			c-0.418,0.182-0.877,0.127-1.302,0.139c-0.89,0.024-1.776,0.153-2.666,0.105c-1.623-0.089-3.247-0.136-4.868-0.304
			c-2.451-0.255-4.86-0.712-7.24-1.325c-2.468-0.636-4.865-1.484-7.206-2.497c-2.796-1.21-5.425-2.709-7.919-4.451
			c-1.279-0.893-2.501-1.86-3.688-2.877c-1.172-1.003-2.258-2.091-3.329-3.194c-1.134-1.169-2.168-2.428-3.151-3.727
			c-0.911-1.203-1.766-2.443-2.542-3.738c-0.085-0.141-0.173-0.274-0.164-0.447c0.456,0.492,0.935,0.961,1.482,1.349
			c0.73,0.518,1.501,0.955,2.33,1.319c0.908,0.399,1.83,0.736,2.797,0.895c0.618,0.102,1.218,0.299,1.849,0.334
			c0.454,0.026,0.906,0.143,1.357,0.133c1.028-0.022,2.054,0.096,3.085-0.031c0.597-0.073,1.208-0.053,1.813-0.097
			c0.75-0.054,1.499-0.131,2.233-0.27C194.468,128.233,195.104,128.225,195.73,128.117z M228.204,142.472
			c0.308,0.017,0.614-0.034,0.916-0.048c0.984-0.047,1.948-0.209,2.905-0.422c2.813-0.628,5.424-1.742,7.827-3.328
			c1.088-0.718,1.509-1.289,1.006-2.552c-0.183-0.458-0.267-0.511-0.736-0.375c-0.367,0.107-0.633,0.369-0.946,0.559
			c-1.672,1.012-3.44,1.788-5.36,2.218c-1.097,0.245-2.191,0.454-3.311,0.578c-1.152,0.127-2.302,0.266-3.459,0.295
			c-1.287,0.033-2.572-0.037-3.86-0.129c-1.104-0.079-2.187-0.215-3.27-0.425c-1.766-0.343-3.408-0.963-4.871-2.029
			c-0.247-0.18-0.408-0.46-0.715-0.568c-0.743-0.264-1.346,0.06-1.908,0.474c-0.494,0.364-0.739,0.831-0.557,1.489
			c0.13,0.469,0.232,0.931,0.654,1.228c0.98,0.689,1.985,1.331,3.095,1.803c2.183,0.928,4.478,1.32,6.825,1.4
			C224.362,142.706,226.287,142.68,228.204,142.472z M231.741,124.64c-0.721-0.031-1.447,0.043-2.179,0.144
			c-0.988,0.137-1.926,0.407-2.826,0.823c-0.82,0.38-1.527,0.938-2.235,1.482c-0.978,0.75-1.954,1.509-2.705,2.512
			c-0.478,0.639-0.258,1.645,0.446,2.014c0.561,0.293,0.999,0.026,1.396-0.289c0.74-0.586,1.475-1.185,2.158-1.835
			c1.368-1.303,3.105-1.616,4.86-1.838c1.061-0.134,2.127,0.016,3.165,0.308c0.897,0.252,1.679,0.654,2.057,1.573
			c0.226,0.55,0.532,1.053,0.83,1.564c0.266,0.455,0.57,0.559,1.024,0.337c0.904-0.442,1.22-1.176,0.877-2.18
			c-0.358-1.046-1.006-1.928-1.656-2.812c-0.59-0.801-1.369-1.244-2.31-1.492C233.693,124.699,232.735,124.597,231.741,124.64z"/>
		<path fill-rule="evenodd" clip-rule="evenodd" fill="#00598D" d="M260.103,115.297c0.04-1.069,0.188-2.134,0.148-3.207
			c-0.076-2.024-0.543-3.939-1.632-5.672c-0.913-1.451-2.281-2.144-3.923-2.502c-1.512-0.33-2.841,0.078-4.162,0.696
			c-2.039,0.955-3.827,2.312-5.684,3.558c-1.551,1.041-3.125,2.049-4.694,3.064c-0.839,0.543-1.676,1.091-2.575,1.531
			c-1.446,0.707-2.927,1.319-4.588,1.146c-0.763-0.079-1.45-0.441-2.161-0.709c-0.842-0.317-1.575-0.824-2.322-1.308
			c1.86-1.282,3.638-2.676,5.442-4.033c0.778-0.585,1.559-1.17,2.292-1.809c1.173-1.025,2.381-2.008,3.516-3.079
			c1.029-0.97,2.096-1.901,3.069-2.928c0.796-0.84,1.573-1.7,2.331-2.574c0.841-0.97,1.686-1.942,2.42-2.996
			c0.658-0.945,1.299-1.898,1.876-2.904c0.55-0.959,1.057-1.932,1.521-2.931c0.684-1.47,1.229-2.993,1.562-4.58
			c0.146-0.695,0.264-1.403,0.391-2.1c0.339-1.849,0.381-3.699,0.304-5.559c-0.04-0.969-0.226-1.923-0.506-2.854
			c-0.07-0.232-0.323-0.414-0.184-0.701c0.371,0.161,0.508,0.535,0.727,0.826c1.617,2.159,3.049,4.433,4.284,6.835
			c1.036,2.015,1.944,4.081,2.711,6.214c0.853,2.371,1.517,4.791,1.979,7.265c0.228,1.224,0.394,2.459,0.536,3.699
			c0.105,0.921,0.083,1.85,0.227,2.766c-0.31,0.265-0.033,0.581-0.07,0.872c-0.097,0.784-0.091,1.575-0.095,2.365
			c-0.002,0.391-0.03,0.787-0.105,1.17c-0.096,0.488-0.176,0.994-0.174,1.472c0.002,0.634-0.284,1.18-0.34,1.786
			c-0.039,0.419-0.193,0.846-0.229,1.25c-0.051,0.564-0.259,1.07-0.397,1.592c-0.173,0.654-0.415,1.3-0.574,1.958
			c-0.195,0.803-0.599,1.52-0.829,2.303C260.185,115.253,260.134,115.272,260.103,115.297z"/>
		<path fill-rule="evenodd" clip-rule="evenodd" fill="#FEFEFE" d="M210.165,51.357c0.577-0.573,0.996-1.266,1.373-1.97
			c0.583-1.086,1.004-2.245,1.257-3.458c0.202-0.969,0.418-1.936,0.457-2.93c0.006-0.167,0.084-0.303,0.121-0.526
			c0.127,0.454,0.238,0.847,0.348,1.24c-0.146,0.173,0.013,0.337,0.036,0.495c0.143,1.019,0.325,2.031,0.42,3.059
			c0.076,0.825,0.052,1.645,0.037,2.464c-0.008,0.403-0.104,0.843-0.291,1.197c-0.513,0.972-1.146,1.865-1.989,2.594
			c-1.027,0.888-2.223,1.496-3.421,2.104c-0.394,0.2-0.782,0.416-1.067,0.773c0.187,0.151,0.362,0.264,0.59,0.337
			c0.994,0.321,1.239,0.647,1.161,1.464c-0.028,0.295-0.147,0.57-0.274,0.837c-0.622,1.314-1.521,2.438-2.513,3.476
			c-1.08,1.13-2.19,2.232-3.381,3.253c-0.968,0.831-1.945,1.649-2.957,2.422c-1.522,1.163-3.1,2.25-4.705,3.297
			c-2.025,1.321-4.117,2.528-6.257,3.651c-1.489,0.782-3.01,1.499-4.599,2.045c-1.157,0.397-2.322,0.803-3.598,0.627
			c-0.715-0.099-1.36-0.613-1.347-1.426c0.01-0.633,0.156-1.212,0.419-1.784c0.223-0.486,0.593-0.894,0.733-1.42l0.001-0.001
			c0.175,0,0.158-0.128,0.161-0.242l0.002-0.002c0.119,0.015,0.15-0.06,0.161-0.157c0.102-0.054,0.167-0.132,0.164-0.253
			c0.025-0.025,0.05-0.05,0.075-0.075c0.109-0.048,0.171-0.127,0.169-0.25c0.106-0.106,0.212-0.212,0.318-0.318
			c0.094-0.022,0.074-0.104,0.087-0.168l-0.004,0.004c0.055-0.056,0.111-0.112,0.166-0.167c0.133-0.133,0.266-0.266,0.4-0.4
			c0.094-0.022,0.073-0.104,0.088-0.168c0.079-0.079,0.158-0.158,0.237-0.237c0.056-0.056,0.112-0.113,0.168-0.169
			c0.647-0.647,1.295-1.295,1.942-1.942c0.056-0.056,0.113-0.112,0.169-0.168c2.075-1.892,4.283-3.612,6.631-5.155
			c0.998-0.656,1.964-1.361,3.011-1.938c1.185-0.653,2.387-1.275,3.582-1.91c0.372-0.158,0.762-0.282,1.061-0.574
			c0.706-0.286,1.324-0.738,2.004-1.068c0.734-0.357,1.421-0.787,2.116-1.207c1.613-0.976,3.131-2.088,4.636-3.218
			c0.405-0.304,0.759-0.675,1.136-1.016c0.1-0.005,0.138-0.079,0.177-0.154c0.156-0.156,0.313-0.313,0.469-0.469
			c0.116-0.049,0.179-0.134,0.18-0.261C210.07,51.452,210.117,51.404,210.165,51.357z"/>
		<path fill-rule="evenodd" clip-rule="evenodd" fill="#92C4E3" d="M180.716,73.182c-0.14,0.526-0.51,0.934-0.733,1.42
			c-0.262,0.572-0.409,1.15-0.419,1.784c-0.013,0.814,0.631,1.327,1.347,1.426c1.276,0.176,2.441-0.23,3.598-0.627
			c1.589-0.545,3.11-1.263,4.599-2.045c2.14-1.124,4.231-2.33,6.257-3.651c1.605-1.047,3.183-2.134,4.705-3.297
			c1.011-0.773,1.989-1.592,2.957-2.422c1.19-1.022,2.301-2.123,3.381-3.253c0.993-1.039,1.891-2.162,2.513-3.476
			c0.127-0.267,0.245-0.542,0.274-0.837c0.079-0.817-0.167-1.143-1.161-1.464c-0.228-0.074-0.403-0.186-0.59-0.337
			c0.285-0.357,0.673-0.574,1.067-0.773c1.198-0.608,2.394-1.216,3.421-2.104c0.843-0.729,1.476-1.622,1.989-2.594
			c0.187-0.354,0.284-0.794,0.291-1.197c0.016-0.82,0.039-1.639-0.037-2.464c-0.095-1.029-0.277-2.04-0.42-3.059
			c-0.022-0.157-0.182-0.322-0.036-0.495c0.292,0.527,0.342,1.128,0.491,1.696c0.334,1.275,0.568,2.577,0.733,3.883
			c0.115,0.908-0.094,1.798-0.37,2.679c-0.392,1.251-1.19,2.17-2.191,2.95c-0.163,0.127-0.264,0.297-0.407,0.434
			c-0.259,0.25-0.158,0.543,0.048,0.691c1.043,0.75,0.847,1.797,0.391,2.812c-0.579,1.289-1.413,2.419-2.286,3.519
			c-0.682,0.859-1.413,1.676-2.146,2.493c-0.668,0.745-1.366,1.458-2.093,2.139c-1.31,1.227-2.645,2.427-4.066,3.53
			c-1.72,1.336-3.466,2.634-5.295,3.814c-1.818,1.173-3.662,2.303-5.575,3.32c-2.044,1.086-4.103,2.14-6.257,2.989
			c-1.425,0.561-2.868,1.079-4.422,1.208c-0.818,0.068-1.594,0.046-2.303-0.414c-0.502-0.325-0.702-0.822-0.752-1.393
			c-0.102-1.155,0.353-2.168,0.816-3.179c0.033-0.071,0.05-0.15,0.075-0.225l-0.001,0.002c0.118-0.04,0.172-0.122,0.164-0.245
			l-0.001,0.002c0.113-0.077,0.148-0.195,0.173-0.32c0.457-0.627,0.89-1.274,1.379-1.875
			C180.112,73.872,180.3,73.426,180.716,73.182z"/>
		<path fill-rule="evenodd" clip-rule="evenodd" fill="#0073B9" d="M220.968,147.034c0.617-0.274,1.288-0.298,1.938-0.419
			c0.785-0.147,1.565-0.328,2.344-0.507c0.976-0.223,1.952-0.443,2.907-0.75c0.89-0.286,1.753-0.641,2.619-0.991
			c0.615-0.249,1.254-0.442,1.861-0.707c0.554-0.242,1.127-0.474,1.648-0.751c0.85-0.452,1.758-0.802,2.568-1.303
			c0.967-0.598,1.962-1.154,2.909-1.787c0.697-0.467,1.441-0.88,2.114-1.367c0.689-0.499,1.371-1.03,2.031-1.578
			c0.894-0.742,1.76-1.519,2.667-2.244c0.65-0.519,1.151-1.189,1.791-1.706c0.732-0.592,1.305-1.338,1.984-1.983
			c0.439-0.417,0.864-0.904,1.216-1.425c0.775-0.074,1.411-0.443,2.008-0.917c0.651-0.517,1.174-1.166,1.809-1.697
			c-0.104,0.541-0.511,0.908-0.813,1.319c-1.098,1.495-2.265,2.933-3.526,4.301c-1.612,1.749-3.363,3.333-5.22,4.814
			c-2.743,2.187-5.732,3.972-8.903,5.446c-2.982,1.386-6.083,2.447-9.289,3.198c-1.855,0.434-3.722,0.789-5.619,0.989
			C221.664,147.006,221.317,147.025,220.968,147.034z"/>
		<path fill-rule="evenodd" clip-rule="evenodd" fill="#0073B9" d="M260.103,115.297c0.031-0.025,0.082-0.044,0.091-0.076
			c0.23-0.784,0.633-1.5,0.829-2.303c0.16-0.657,0.401-1.304,0.574-1.958c0.138-0.522,0.347-1.028,0.397-1.592
			c0.036-0.404,0.19-0.831,0.229-1.25c0.056-0.606,0.342-1.153,0.34-1.786c-0.001-0.478,0.079-0.984,0.174-1.472
			c0.075-0.382,0.103-0.779,0.105-1.17c0.004-0.79-0.002-1.581,0.095-2.365c0.036-0.291-0.241-0.607,0.07-0.872
			c0.001,1.094,0.055,2.191-0.009,3.281c-0.092,1.562-0.22,3.123-0.451,4.676c-0.294,1.978-0.701,3.928-1.247,5.848
			c-0.508,1.784-1.101,3.54-1.851,5.239c-0.331,0.75-0.662,1.501-1.002,2.247c-0.059,0.13-0.092,0.285-0.232,0.367
			c0.229-0.725,0.532-1.422,0.764-2.147c0.458-1.43,0.865-2.868,1.031-4.366C260.023,115.495,260.072,115.397,260.103,115.297z"/>
		<path fill-rule="evenodd" clip-rule="evenodd" fill="#00598D" d="M199.305,58.892c-0.299,0.293-0.689,0.417-1.061,0.574
			C198.531,59.152,198.923,59.031,199.305,58.892z"/>
		<path fill-rule="evenodd" clip-rule="evenodd" fill="#00598D" d="M181.205,72.527c0.002,0.121-0.062,0.199-0.164,0.253
			c-0.055,0.026-0.111,0.052-0.166,0.077C180.893,72.655,181.003,72.545,181.205,72.527z"/>
		<path fill-rule="evenodd" clip-rule="evenodd" fill="#0073B9" d="M210.023,51.498c-0.001,0.127-0.064,0.213-0.18,0.261
			C209.843,51.632,209.839,51.5,210.023,51.498z"/>
		<path fill-rule="evenodd" clip-rule="evenodd" fill="#0073B9" d="M178.274,76.419c0.008,0.123-0.046,0.206-0.164,0.245
			C178.109,76.545,178.101,76.422,178.274,76.419z"/>
		<path fill-rule="evenodd" clip-rule="evenodd" fill="#0073B9" d="M178.445,76.101c-0.025,0.124-0.06,0.243-0.173,0.32
			C178.264,76.278,178.285,76.152,178.445,76.101z"/>
		<path fill-rule="evenodd" clip-rule="evenodd" fill="#92C4E3" d="M180.879,72.938c-0.003,0.114,0.014,0.242-0.161,0.242
			C180.693,73.048,180.745,72.966,180.879,72.938z"/>
		<path fill-rule="evenodd" clip-rule="evenodd" fill="#00598D" d="M181.449,72.202c0.002,0.122-0.06,0.202-0.169,0.25
			C181.276,72.329,181.273,72.205,181.449,72.202z"/>
		<path fill-rule="evenodd" clip-rule="evenodd" fill="#0073B9" d="M255.379,126.906c0.064-0.076,0.06-0.198,0.165-0.246
			C255.548,126.781,255.557,126.906,255.379,126.906z"/>
		<path fill-rule="evenodd" clip-rule="evenodd" fill="#00598D" d="M185.02,68.47c-0.056,0.056-0.113,0.112-0.169,0.168
			C184.85,68.524,184.908,68.469,185.02,68.47z"/>
		<path fill-rule="evenodd" clip-rule="evenodd" fill="#92C4E3" d="M180.875,72.857c0.055-0.026,0.111-0.052,0.166-0.077
			c-0.011,0.096-0.042,0.171-0.161,0.157C180.868,72.911,180.866,72.885,180.875,72.857z"/>
		<path fill-rule="evenodd" clip-rule="evenodd" fill="#00598D" d="M182.017,71.553c-0.055,0.056-0.111,0.112-0.166,0.167
			C181.848,71.607,181.904,71.552,182.017,71.553z"/>
		<path fill-rule="evenodd" clip-rule="evenodd" fill="#0073B9" d="M255.541,126.662c0.025-0.082,0.085-0.131,0.157-0.168
			C255.705,126.606,255.661,126.669,255.541,126.662z"/>
		<path fill-rule="evenodd" clip-rule="evenodd" fill="#0073B9" d="M209.374,52.229c-0.038,0.075-0.077,0.149-0.177,0.154
			C209.205,52.272,209.265,52.222,209.374,52.229z"/>
		<path fill-rule="evenodd" clip-rule="evenodd" fill="#00598D" d="M182.909,70.579c-0.056,0.056-0.112,0.113-0.168,0.169
			C182.741,70.636,182.796,70.578,182.909,70.579z"/>
		<path fill-rule="evenodd" clip-rule="evenodd" fill="#00598D" d="M181.854,71.716c-0.014,0.064,0.007,0.146-0.087,0.168
			C181.766,71.813,181.777,71.747,181.854,71.716z"/>
		<path fill-rule="evenodd" clip-rule="evenodd" fill="#00598D" d="M182.505,70.985c-0.015,0.064,0.006,0.146-0.088,0.168
			C182.415,71.082,182.427,71.016,182.505,70.985z"/>
		<path fill-rule="evenodd" clip-rule="evenodd" fill="#FEFEFE" d="M228.204,142.472c-1.917,0.208-3.842,0.235-5.764,0.169
			c-2.347-0.081-4.642-0.472-6.825-1.4c-1.11-0.472-2.115-1.114-3.095-1.803c-0.423-0.297-0.524-0.759-0.654-1.228
			c-0.183-0.658,0.062-1.125,0.557-1.489c0.562-0.414,1.165-0.738,1.908-0.474c0.306,0.109,0.468,0.388,0.715,0.568
			c1.463,1.067,3.104,1.686,4.871,2.029c1.083,0.21,2.167,0.347,3.27,0.425c1.288,0.092,2.572,0.162,3.86,0.129
			c1.157-0.03,2.307-0.168,3.459-0.295c1.12-0.124,2.215-0.332,3.311-0.578c1.92-0.43,3.688-1.206,5.36-2.218
			c0.313-0.19,0.579-0.452,0.946-0.559c0.469-0.137,0.553-0.083,0.736,0.375c0.504,1.263,0.082,1.834-1.006,2.552
			c-2.403,1.586-5.014,2.7-7.827,3.328c-0.957,0.214-1.92,0.375-2.905,0.422C228.818,142.438,228.512,142.489,228.204,142.472z"/>
		<path fill-rule="evenodd" clip-rule="evenodd" fill="#FEFEFE" d="M231.741,124.64c0.994-0.043,1.952,0.059,2.902,0.31
			c0.941,0.249,1.721,0.691,2.31,1.492c0.65,0.884,1.298,1.766,1.656,2.812c0.343,1.004,0.027,1.738-0.877,2.18
			c-0.454,0.222-0.758,0.118-1.024-0.337c-0.298-0.51-0.604-1.014-0.83-1.564c-0.378-0.919-1.159-1.321-2.057-1.573
			c-1.038-0.292-2.105-0.441-3.165-0.308c-1.755,0.222-3.492,0.535-4.86,1.838c-0.683,0.65-1.419,1.249-2.158,1.835
			c-0.398,0.315-0.836,0.582-1.396,0.289c-0.704-0.368-0.924-1.374-0.446-2.014c0.751-1.003,1.726-1.762,2.705-2.512
			c0.709-0.544,1.415-1.102,2.235-1.482c0.9-0.416,1.838-0.686,2.826-0.823C230.293,124.682,231.02,124.609,231.741,124.64z"/>
	</g>
	<g>
		<path fill="#FFFFFF" stroke="#004975" stroke-width="3" stroke-miterlimit="10" d="M234.268,110.719
			c-4.465-5.218-8.925-10.442-13.398-15.654c-3.866-4.505-7.748-8.997-11.596-13.464c0.5-1.231,1.1-1.388,2.248-0.725
			c6.363,3.673,12.778,7.256,19.265,10.921c15.832-21.453,33.41-41.057,56.81-55.083c0.162,0.295,0.281,0.53,0.418,0.755
			c0.138,0.226,0.294,0.442,0.547,0.819c-22.892,20.336-39.971,44.986-53.23,72.432
			C234.978,110.719,234.623,110.719,234.268,110.719z"/>
	</g>
</g>
<text transform="matrix(1 0 0 1 3.0001 58.7794)"><tspan x="0" y="0" fill="#FFFFFF" stroke="#0071BC" stroke-miterlimit="10" font-family="'AdelleSans-BoldItalic'" font-size="38.8656">Drupal Dev </tspan><tspan x="0" y="34.007" fill="#FFFFFF" stroke="#0071BC" stroke-miterlimit="10" font-family="'AdelleSans-BoldItalic'" font-size="38.8656">Checklist</tspan></text>
</svg>
