<?xml version="1.0" encoding="utf-8"?>
<!-- Generator: Adobe Illustrator 17.1.0, SVG Export Plug-In . SVG Version: 6.00 Build 0)  -->
<!DOCTYPE svg PUBLIC "-//W3C//DTD SVG 1.1//EN" "http://www.w3.org/Graphics/SVG/1.1/DTD/svg11.dtd">
<svg version="1.1" id="Layer_1" xmlns="http://www.w3.org/2000/svg" xmlns:xlink="http://www.w3.org/1999/xlink" x="0px" y="0px"
	 width="332.667px" height="158.333px" viewBox="0 0 332.667 158.333" enable-background="new 0 0 332.667 158.333"
	 xml:space="preserve">
<g>
	<text transform="matrix(1 0 0 1 34.6668 60.9392)"><tspan x="0" y="0" font-family="'Arial-Black'" font-size="36">Drupal Dev </tspan><tspan x="0" y="34.007" font-family="'Arial-Black'" font-size="36">Checklist</tspan></text>
</g>
<text transform="matrix(1 0 0 1 37.3334 58.2725)"><tspan x="0" y="0" fill="#FFFFFF" font-family="'Arial-Black'" font-size="36">Drupal Dev </tspan><tspan x="0" y="34.007" fill="#FFFFFF" font-family="'Arial-Black'" font-size="36">Checklist</tspan></text>
<g>
	<g>
		<path fill-rule="evenodd" clip-rule="evenodd" d="M259.184,44.177c0.45,0.633,0.986,1.124,1.441,1.688
			c0.447,0.554,0.887,1.112,1.342,1.659c0.611,0.735,1.21,1.482,1.858,2.185c0.87,0.945,1.72,1.906,2.675,2.776
			c1.171,1.066,2.432,2.001,3.756,2.855c1.306,0.842,2.698,1.52,4.147,2.085c1.129,0.44,2.256,0.885,3.363,1.385
			c1.888,0.852,3.676,1.871,5.384,3.036c1.147,0.782,2.257,1.612,3.309,2.52c0.72,0.622,1.408,1.278,2.121,1.906
			c0.729,0.641,1.372,1.362,2.023,2.069c1.216,1.32,2.346,2.713,3.372,4.195c1.041,1.504,1.998,3.053,2.841,4.676
			c0.919,1.772,1.717,3.593,2.382,5.477c0.487,1.381,0.899,2.781,1.238,4.202c0.245,1.026,0.425,2.067,0.57,3.115
			c0.162,1.178,0.27,2.357,0.344,3.544c0.077,1.227,0.08,2.453,0.032,3.673c-0.05,1.258-0.18,2.515-0.372,3.766
			c-0.277,1.808-0.666,3.584-1.191,5.335c-0.529,1.768-1.183,3.483-1.971,5.151c-0.653,1.384-1.243,2.799-2.139,4.056
			c-0.918,1.286-1.808,2.591-2.811,3.817c-1.07,1.307-2.221,2.538-3.45,3.691c-1.199,1.125-2.474,2.164-3.813,3.124
			c-1.933,1.386-3.991,2.552-6.14,3.559c-1.205,0.564-2.444,1.051-3.7,1.497c-1.472,0.522-2.974,0.94-4.491,1.292
			c-1.198,0.277-2.412,0.49-3.639,0.63c-1.163,0.133-2.325,0.214-3.493,0.276c-0.712,0.038-1.423,0.059-2.132,0.039
			c-1.126-0.032-2.255-0.076-3.374-0.203c-1.861-0.211-3.704-0.526-5.529-0.973c-2.141-0.524-4.217-1.219-6.251-2.06
			c-2.53-1.045-4.896-2.387-7.139-3.946c-1.042-0.724-2.03-1.523-2.995-2.352c-1.117-0.96-2.148-2.004-3.164-3.062
			c-0.858-0.894-1.639-1.863-2.39-2.852c-0.922-1.213-1.763-2.482-2.523-3.8c-0.803-1.391-1.516-2.829-2.136-4.315
			c-0.439-1.05-0.84-2.111-1.186-3.194c-0.521-1.635-0.938-3.294-1.212-4.99c-0.169-1.049-0.292-2.102-0.406-3.158
			c-0.198-1.834-0.135-3.67-0.103-5.503c0.017-1.014,0.161-2.031,0.299-3.044c0.218-1.599,0.544-3.171,0.955-4.729
			c0.359-1.362,0.822-2.689,1.32-4.006c0.623-1.648,1.384-3.228,2.219-4.778c0.589-1.093,1.255-2.134,1.957-3.154
			c0.663-0.963,1.367-1.893,2.121-2.788c0.939-1.113,1.937-2.169,2.989-3.173c0.867-0.827,1.792-1.59,2.723-2.348
			c1.229-1,2.529-1.894,3.851-2.759c1.009-0.66,2.055-1.259,3.117-1.829c1.875-1.006,3.805-1.913,5.614-3.038
			c1.423-0.885,2.797-1.845,4.124-2.876c1.642-1.275,2.593-2.952,3.177-4.907c0.39-1.307,0.661-2.632,0.856-3.977
			C259.021,45.18,259.099,44.718,259.184,44.177z M233.676,70.364c-0.063,0.026-0.073,0.08-0.072,0.139
			c-0.088,0.088-0.175,0.175-0.263,0.263c-0.145,0.002-0.142,0.104-0.139,0.206c-0.021,0.021-0.041,0.041-0.062,0.062
			c-0.167,0.015-0.258,0.106-0.273,0.273c-0.007,0.022-0.006,0.044,0.004,0.066l-0.001,0.001c-0.11,0.023-0.153,0.09-0.133,0.2
			l-0.001,0.001c-0.344,0.202-0.499,0.57-0.737,0.862c-0.404,0.497-0.762,1.031-1.139,1.549c-0.132,0.042-0.15,0.146-0.143,0.264
			l0.001-0.001c-0.143,0.002-0.136,0.105-0.135,0.202l0.001-0.001c-0.162,0.018-0.196,0.168-0.265,0.272
			c-1.124,1.705-2.059,3.511-2.864,5.385c-0.773,1.799-1.425,3.64-1.926,5.533c-0.399,1.51-0.716,3.036-0.923,4.587
			c-0.157,1.177-0.299,2.355-0.317,3.54c-0.026,1.758-0.038,3.515,0.183,5.268c0.112,0.89,0.207,1.782,0.369,2.663
			c0.376,2.053,0.908,4.065,1.621,6.031c0.695,1.919,1.534,3.77,2.523,5.552c0.169,0.305,0.289,0.655,0.593,0.873
			c-0.008,0.143,0.065,0.252,0.135,0.369c0.641,1.069,1.348,2.094,2.101,3.088c0.813,1.073,1.666,2.113,2.603,3.079
			c0.885,0.911,1.783,1.81,2.751,2.639c0.981,0.84,1.99,1.638,3.047,2.377c2.06,1.439,4.233,2.678,6.543,3.677
			c1.934,0.837,3.915,1.538,5.953,2.063c1.966,0.506,3.956,0.884,5.981,1.095c1.339,0.139,2.681,0.178,4.022,0.252
			c0.736,0.04,1.468-0.066,2.203-0.086c0.351-0.01,0.731,0.036,1.076-0.115c0.289-0.007,0.574-0.023,0.863-0.053
			c1.567-0.165,3.11-0.458,4.642-0.817c2.648-0.621,5.211-1.497,7.674-2.642c2.62-1.218,5.089-2.693,7.355-4.5
			c1.534-1.223,2.981-2.532,4.312-3.977c1.042-1.13,2.006-2.318,2.913-3.553c0.249-0.34,0.585-0.643,0.671-1.09l-0.002,0.002
			c0.148,0,0.14-0.103,0.136-0.203l-0.002,0.002c0.099,0.006,0.136-0.047,0.13-0.139c0.012-0.041,0.013-0.092,0.038-0.122
			c0.607-0.734,1.07-1.559,1.499-2.402c0.185-0.363,0.322-0.752,0.543-1.099c0.116-0.068,0.143-0.196,0.192-0.304
			c0.281-0.616,0.554-1.237,0.828-1.856c0.62-1.404,1.11-2.854,1.529-4.328c0.451-1.586,0.787-3.198,1.03-4.832
			c0.191-1.283,0.297-2.572,0.373-3.863c0.053-0.901,0.009-1.807,0.008-2.711c-0.119-0.757-0.101-1.524-0.188-2.285
			c-0.117-1.024-0.254-2.044-0.443-3.056c-0.381-2.044-0.93-4.044-1.635-6.002c-0.634-1.762-1.384-3.469-2.24-5.134
			c-1.02-1.984-2.203-3.863-3.539-5.647c-0.18-0.241-0.294-0.55-0.6-0.683c-0.11-0.078-0.069-0.22-0.152-0.323
			c-0.988-1.233-2.058-2.396-3.151-3.534c-0.554-0.577-1.172-1.093-1.759-1.637c-0.742-0.687-1.519-1.333-2.322-1.947
			c-1.333-1.02-2.718-1.962-4.169-2.812c-1.31-0.767-2.665-1.436-4.063-2.021c-2.07-0.865-4.203-1.586-6.127-2.78
			c-1.686-1.047-3.279-2.21-4.71-3.586c-1.069-1.027-2.046-2.139-3.009-3.265c-0.692-0.81-1.378-1.625-2.055-2.448
			c-0.288-0.35-0.537-0.743-0.911-1.055c-0.171,0.883-0.298,1.737-0.494,2.578c-0.399,1.712-0.946,3.36-1.998,4.798
			c-0.063,0.086-0.101,0.171-0.094,0.276c-0.039,0.039-0.078,0.078-0.117,0.116c-0.152,0.002-0.149,0.11-0.149,0.216
			c-0.129,0.129-0.258,0.258-0.387,0.387c-0.09-0.005-0.14,0.036-0.146,0.127c-0.312,0.281-0.604,0.588-0.939,0.839
			c-1.243,0.934-2.498,1.853-3.83,2.659c-0.574,0.347-1.142,0.703-1.748,0.997c-0.562,0.273-1.072,0.646-1.656,0.882
			c-0.316,0.115-0.64,0.214-0.877,0.475c-0.987,0.525-1.981,1.039-2.96,1.578c-0.865,0.477-1.663,1.059-2.487,1.601
			c-1.94,1.275-3.764,2.696-5.478,4.259c-0.093-0.001-0.141,0.044-0.14,0.139c-0.535,0.535-1.07,1.07-1.604,1.604
			c-0.094-0.001-0.139,0.047-0.139,0.14c-0.065,0.065-0.131,0.131-0.196,0.196c-0.064,0.026-0.074,0.079-0.073,0.139
			c-0.11,0.11-0.22,0.22-0.33,0.33c-0.093-0.001-0.139,0.045-0.137,0.138L233.676,70.364z"/>
		<path fill-rule="evenodd" clip-rule="evenodd" d="M257.067,53.544c-0.007-0.105,0.031-0.19,0.094-0.276
			c1.052-1.438,1.598-3.086,1.998-4.798c0.196-0.841,0.323-1.694,0.494-2.578c0.375,0.312,0.623,0.705,0.911,1.055
			c0.678,0.823,1.363,1.638,2.055,2.448c0.963,1.126,1.94,2.238,3.009,3.265c1.431,1.376,3.024,2.54,4.71,3.586
			c1.924,1.194,4.057,1.915,6.127,2.78c1.398,0.585,2.753,1.254,4.063,2.021c1.451,0.849,2.836,1.792,4.169,2.812
			c0.803,0.614,1.58,1.26,2.322,1.947c0.588,0.545,1.205,1.061,1.759,1.637c1.093,1.138,2.162,2.3,3.151,3.534
			c0.082,0.103,0.041,0.245,0.152,0.323c-0.114,0.237,0.095,0.388,0.152,0.579c0.231,0.77,0.385,1.557,0.418,2.358
			c0.064,1.537,0.028,3.065-0.251,4.593c-0.105,0.576-0.203,1.161-0.323,1.735c-0.275,1.311-0.725,2.569-1.29,3.784
			c-0.384,0.825-0.802,1.629-1.257,2.422c-0.476,0.831-1.007,1.619-1.55,2.399c-0.606,0.871-1.304,1.674-2,2.475
			c-0.627,0.722-1.268,1.433-1.926,2.127c-0.804,0.848-1.686,1.617-2.536,2.419c-0.938,0.884-1.936,1.697-2.905,2.544
			c-0.605,0.528-1.251,1.011-1.893,1.495c-1.491,1.122-2.959,2.273-4.496,3.332c-0.991-0.674-1.981-1.348-2.973-2.021
			c-1.524-1.034-3.093-1.997-4.651-2.979c-1.427-0.899-2.928-1.637-4.509-2.208c-1.388-0.502-2.819-0.84-4.305-0.764
			c-0.79,0.04-1.583,0.087-2.373,0.176c-0.719,0.081-1.429,0.192-2.138,0.333c-1.172,0.233-2.216,0.767-3.239,1.354
			c-1.684,0.966-3.279,2.04-4.468,3.618c-0.738,0.979-1.349,2.032-1.852,3.149c-0.354,0.787-0.546,1.628-0.763,2.454
			c-0.168,0.639-0.29,1.32-0.228,1.99c0.041,0.444,0.05,0.885,0.051,1.328c0.001,0.466,0.099,0.915,0.211,1.36
			c0.179,0.708,0.469,1.378,0.757,2.045c0.35,0.811,0.797,1.571,1.478,2.154c0.604,0.517,1.237,1,1.919,1.414
			c-0.517,0.089-1.043,0.096-1.562,0.193c-0.607,0.115-1.225,0.178-1.845,0.223c-0.5,0.036-1.005,0.02-1.498,0.08
			c-0.852,0.104-1.7,0.007-2.549,0.025c-0.373,0.008-0.746-0.089-1.121-0.11c-0.521-0.029-1.017-0.192-1.528-0.276
			c-0.799-0.131-1.56-0.41-2.311-0.74c-0.685-0.301-1.322-0.662-1.925-1.09c-0.452-0.321-0.848-0.709-1.224-1.115
			c-0.304-0.218-0.424-0.568-0.593-0.873c-0.989-1.783-1.828-3.633-2.523-5.552c-0.712-1.966-1.244-3.978-1.621-6.031
			c-0.161-0.88-0.257-1.773-0.369-2.663c-0.22-1.752-0.208-3.51-0.183-5.268c0.017-1.185,0.16-2.363,0.317-3.54
			c0.206-1.551,0.523-3.077,0.923-4.587c0.501-1.893,1.153-3.734,1.926-5.533c0.805-1.874,1.741-3.68,2.864-5.385
			c0.069-0.105,0.103-0.254,0.265-0.272c-0.02,0.062-0.035,0.127-0.062,0.186c-0.383,0.835-0.758,1.672-0.674,2.627
			c0.041,0.472,0.206,0.882,0.621,1.151c0.586,0.379,1.226,0.397,1.902,0.342c1.284-0.106,2.476-0.534,3.653-0.998
			c1.78-0.701,3.481-1.572,5.17-2.469c1.581-0.84,3.104-1.774,4.606-2.743c1.511-0.975,2.954-2.047,4.375-3.151
			c1.174-0.912,2.277-1.903,3.359-2.917c0.601-0.562,1.177-1.152,1.729-1.767c0.605-0.675,1.209-1.35,1.773-2.06
			c0.722-0.909,1.411-1.843,1.889-2.908c0.377-0.839,0.539-1.704-0.323-2.323c-0.171-0.123-0.254-0.365-0.04-0.571
			c0.118-0.114,0.202-0.254,0.336-0.359c0.827-0.644,1.486-1.403,1.81-2.437c0.228-0.728,0.4-1.464,0.306-2.214
			c-0.136-1.079-0.329-2.155-0.606-3.208c-0.123-0.469-0.164-0.966-0.406-1.401c-0.091-0.325-0.182-0.65-0.287-1.025
			c-0.03,0.184-0.094,0.297-0.1,0.435c-0.032,0.821-0.211,1.62-0.378,2.42c-0.209,1.002-0.556,1.959-1.038,2.857
			C257.889,52.497,257.543,53.07,257.067,53.544z"/>
		<path fill-rule="evenodd" clip-rule="evenodd" d="M245.141,116.962c-0.682-0.414-1.315-0.897-1.919-1.414
			c-0.681-0.583-1.128-1.343-1.478-2.154c-0.288-0.667-0.578-1.337-0.757-2.045c-0.113-0.445-0.211-0.894-0.211-1.36
			c-0.001-0.443-0.01-0.884-0.051-1.328c-0.062-0.67,0.06-1.351,0.228-1.99c0.216-0.826,0.408-1.667,0.763-2.454
			c0.503-1.117,1.115-2.17,1.852-3.149c1.189-1.578,2.784-2.652,4.468-3.618c1.023-0.587,2.067-1.121,3.239-1.354
			c0.709-0.141,1.419-0.252,2.138-0.333c0.79-0.089,1.582-0.136,2.373-0.176c1.486-0.075,2.917,0.262,4.305,0.764
			c1.582,0.572,3.082,1.309,4.509,2.208c1.557,0.982,3.127,1.945,4.651,2.979c0.992,0.673,1.982,1.347,2.973,2.021
			c0.617,0.4,1.222,0.819,1.918,1.081c0.587,0.221,1.155,0.52,1.785,0.585c1.373,0.143,2.596-0.363,3.791-0.947
			c0.743-0.363,1.434-0.817,2.127-1.265c1.296-0.838,2.597-1.671,3.878-2.531c1.535-1.03,3.012-2.151,4.696-2.94
			c1.091-0.511,2.189-0.848,3.439-0.575c1.357,0.296,2.487,0.868,3.241,2.067c0.9,1.432,1.286,3.013,1.349,4.686
			c0.033,0.886-0.089,1.766-0.122,2.649c-0.026,0.082-0.066,0.163-0.076,0.248c-0.137,1.237-0.473,2.426-0.852,3.607
			c-0.192,0.599-0.443,1.175-0.632,1.774c-0.221,0.347-0.358,0.735-0.543,1.099c-0.429,0.842-0.892,1.668-1.499,2.402
			c-0.025,0.031-0.026,0.081-0.038,0.122c-0.06,0.031-0.11,0.071-0.13,0.139l0.002-0.002c-0.087,0.04-0.084,0.14-0.136,0.203
			l0.002-0.002c-0.525,0.439-0.957,0.975-1.495,1.402c-0.494,0.392-1.019,0.696-1.659,0.757c-0.067-0.003-0.135-0.017-0.2-0.006
			c-0.795,0.135-1.572,0.118-2.302-0.277c-0.474-0.257-0.893-0.584-1.301-0.938c-0.768-0.666-1.479-1.39-2.163-2.134
			c-0.547-0.595-1.12-1.164-1.682-1.742c-0.84-0.863-1.752-1.655-2.659-2.45c-0.899-0.788-1.834-1.494-2.953-1.96
			c-0.79-0.328-1.611-0.503-2.414-0.337c-1.363,0.283-2.644,0.833-3.843,1.557c-1.228,0.741-2.456,1.482-3.691,2.21
			c-0.991,0.585-1.993,1.153-2.991,1.728c-1.064,0.613-2.115,1.25-3.196,1.832c-1.023,0.551-2.083,1.032-3.153,1.491
			c-2.133,0.915-4.34,1.46-6.675,1.419c-0.755-0.013-1.51-0.014-2.265-0.06c-0.594-0.036-1.178-0.119-1.755-0.244
			C246.986,117.983,246.053,117.493,245.141,116.962z"/>
		<path fill-rule="evenodd" clip-rule="evenodd" d="M245.141,116.962c0.913,0.53,1.845,1.021,2.886,1.246
			c0.577,0.125,1.161,0.208,1.755,0.244c0.755,0.046,1.51,0.046,2.265,0.06c2.335,0.041,4.542-0.504,6.675-1.419
			c1.069-0.459,2.129-0.94,3.153-1.491c1.081-0.582,2.132-1.219,3.196-1.832c0.997-0.575,1.999-1.142,2.991-1.728
			c1.235-0.729,2.463-1.47,3.691-2.21c1.199-0.723,2.481-1.274,3.843-1.557c0.803-0.166,1.624,0.008,2.414,0.337
			c1.12,0.465,2.055,1.172,2.953,1.96c0.907,0.795,1.819,1.587,2.659,2.45c0.562,0.577,1.136,1.146,1.682,1.742
			c0.684,0.744,1.395,1.469,2.163,2.134c0.409,0.354,0.828,0.681,1.301,0.938c0.73,0.396,1.507,0.413,2.302,0.277
			c0.064-0.011,0.133,0.003,0.2,0.006c-0.291,0.43-0.642,0.833-1.005,1.177c-0.561,0.532-1.034,1.149-1.639,1.638
			c-0.529,0.428-0.943,0.981-1.479,1.41c-0.75,0.599-1.465,1.241-2.204,1.854c-0.545,0.452-1.109,0.891-1.678,1.303
			c-0.556,0.402-1.17,0.744-1.746,1.129c-0.782,0.523-1.604,0.982-2.403,1.477c-0.669,0.414-1.419,0.703-2.122,1.076
			c-0.43,0.229-0.904,0.42-1.361,0.62c-0.502,0.219-1.03,0.379-1.538,0.584c-0.715,0.289-1.428,0.582-2.164,0.819
			c-0.789,0.254-1.596,0.435-2.402,0.62c-0.644,0.147-1.287,0.297-1.936,0.419c-0.537,0.1-1.091,0.12-1.601,0.346
			c-0.345,0.15-0.725,0.105-1.076,0.115c-0.735,0.02-1.467,0.127-2.203,0.086c-1.341-0.073-2.683-0.112-4.022-0.252
			c-2.025-0.21-4.015-0.588-5.981-1.095c-2.039-0.525-4.019-1.226-5.953-2.063c-2.31-1-4.482-2.238-6.543-3.677
			c-1.057-0.738-2.066-1.537-3.047-2.377c-0.968-0.829-1.866-1.728-2.751-2.639c-0.937-0.965-1.791-2.006-2.603-3.079
			c-0.753-0.994-1.459-2.019-2.101-3.088c-0.07-0.117-0.143-0.227-0.135-0.369c0.376,0.406,0.772,0.794,1.224,1.115
			c0.603,0.428,1.24,0.789,1.925,1.09c0.75,0.329,1.512,0.608,2.311,0.74c0.511,0.084,1.007,0.247,1.528,0.276
			c0.375,0.021,0.748,0.118,1.121,0.11c0.849-0.019,1.697,0.079,2.549-0.025c0.493-0.06,0.998-0.044,1.498-0.08
			c0.62-0.045,1.238-0.108,1.845-0.223C244.098,117.058,244.624,117.052,245.141,116.962z M271.971,128.822
			c0.254,0.014,0.507-0.028,0.757-0.04c0.813-0.039,1.609-0.172,2.4-0.349c2.324-0.519,4.481-1.439,6.466-2.749
			c0.899-0.593,1.247-1.065,0.831-2.109c-0.151-0.378-0.221-0.423-0.608-0.31c-0.303,0.089-0.523,0.305-0.781,0.462
			c-1.381,0.836-2.842,1.478-4.428,1.833c-0.906,0.203-1.81,0.375-2.736,0.477c-0.952,0.105-1.902,0.219-2.858,0.244
			c-1.064,0.028-2.125-0.031-3.189-0.106c-0.912-0.065-1.807-0.178-2.702-0.351c-1.459-0.283-2.815-0.795-4.024-1.676
			c-0.204-0.149-0.337-0.38-0.591-0.47c-0.614-0.218-1.112,0.05-1.576,0.392c-0.408,0.301-0.611,0.686-0.46,1.23
			c0.108,0.387,0.191,0.769,0.541,1.015c0.81,0.569,1.64,1.099,2.557,1.489c1.803,0.767,3.699,1.09,5.639,1.157
			C268.797,129.016,270.387,128.994,271.971,128.822z M274.893,114.09c-0.595-0.025-1.196,0.035-1.801,0.119
			c-0.816,0.113-1.591,0.336-2.335,0.68c-0.678,0.314-1.261,0.775-1.847,1.224c-0.808,0.62-1.614,1.246-2.235,2.075
			c-0.395,0.528-0.213,1.359,0.368,1.664c0.463,0.242,0.825,0.022,1.154-0.239c0.611-0.484,1.219-0.979,1.783-1.516
			c1.13-1.076,2.565-1.335,4.015-1.518c0.876-0.111,1.758,0.013,2.615,0.254c0.741,0.208,1.387,0.54,1.699,1.3
			c0.187,0.454,0.44,0.87,0.686,1.292c0.22,0.376,0.471,0.462,0.846,0.278c0.747-0.365,1.008-0.972,0.724-1.801
			c-0.296-0.864-0.831-1.593-1.368-2.323c-0.487-0.662-1.131-1.027-1.909-1.233C276.506,114.138,275.714,114.054,274.893,114.09z"/>
		<path fill-rule="evenodd" clip-rule="evenodd" d="M298.326,106.37c0.033-0.884,0.155-1.763,0.122-2.649
			c-0.063-1.672-0.449-3.254-1.349-4.686c-0.754-1.199-1.884-1.771-3.241-2.067c-1.249-0.273-2.348,0.064-3.439,0.575
			c-1.685,0.789-3.162,1.91-4.696,2.94c-1.282,0.86-2.582,1.693-3.878,2.531c-0.693,0.448-1.385,0.902-2.127,1.265
			c-1.195,0.584-2.418,1.09-3.791,0.947c-0.63-0.066-1.198-0.365-1.785-0.585c-0.696-0.262-1.301-0.681-1.918-1.081
			c1.537-1.059,3.006-2.21,4.496-3.332c0.642-0.483,1.288-0.966,1.893-1.495c0.969-0.847,1.967-1.659,2.905-2.544
			c0.85-0.802,1.732-1.571,2.536-2.419c0.658-0.694,1.3-1.404,1.926-2.127c0.695-0.801,1.393-1.604,2-2.475
			c0.543-0.78,1.074-1.568,1.55-2.399c0.455-0.793,0.873-1.597,1.257-2.422c0.565-1.215,1.015-2.473,1.29-3.784
			c0.12-0.574,0.218-1.159,0.323-1.735c0.28-1.527,0.315-3.056,0.251-4.593c-0.033-0.8-0.187-1.588-0.418-2.358
			c-0.057-0.192-0.267-0.342-0.152-0.579c0.307,0.133,0.42,0.442,0.6,0.683c1.336,1.784,2.519,3.663,3.539,5.647
			c0.856,1.665,1.606,3.372,2.24,5.134c0.705,1.959,1.254,3.958,1.635,6.002c0.189,1.011,0.326,2.032,0.443,3.056
			c0.087,0.761,0.069,1.528,0.188,2.285c-0.256,0.219-0.028,0.48-0.057,0.721c-0.08,0.648-0.075,1.301-0.078,1.954
			c-0.002,0.323-0.025,0.651-0.086,0.966c-0.079,0.404-0.145,0.821-0.144,1.216c0.001,0.524-0.235,0.975-0.281,1.476
			c-0.032,0.346-0.16,0.699-0.189,1.033c-0.042,0.466-0.214,0.884-0.328,1.315c-0.143,0.54-0.342,1.074-0.475,1.617
			c-0.162,0.664-0.495,1.256-0.685,1.903C298.394,106.334,298.351,106.35,298.326,106.37z"/>
		<path fill-rule="evenodd" clip-rule="evenodd" d="M257.067,53.544c0.477-0.474,0.823-1.046,1.135-1.627
			c0.482-0.898,0.83-1.855,1.038-2.857c0.167-0.8,0.346-1.6,0.378-2.42c0.005-0.138,0.07-0.251,0.1-0.435
			c0.105,0.375,0.196,0.7,0.288,1.025c-0.121,0.143,0.011,0.279,0.029,0.409c0.118,0.842,0.269,1.678,0.347,2.528
			c0.063,0.682,0.043,1.359,0.03,2.036c-0.007,0.333-0.086,0.696-0.241,0.989c-0.424,0.803-0.947,1.541-1.644,2.143
			c-0.849,0.734-1.837,1.236-2.827,1.738c-0.325,0.165-0.646,0.344-0.881,0.639c0.154,0.125,0.299,0.218,0.488,0.279
			c0.821,0.265,1.024,0.535,0.959,1.21c-0.023,0.244-0.122,0.471-0.226,0.692c-0.514,1.086-1.256,2.014-2.076,2.872
			c-0.892,0.934-1.809,1.844-2.793,2.688c-0.8,0.686-1.607,1.362-2.443,2.001c-1.257,0.961-2.561,1.859-3.888,2.724
			c-1.673,1.092-3.401,2.088-5.169,3.017c-1.23,0.646-2.487,1.239-3.8,1.689c-0.956,0.328-1.919,0.664-2.973,0.518
			c-0.591-0.082-1.123-0.506-1.113-1.179c0.008-0.523,0.129-1.001,0.346-1.474c0.184-0.401,0.49-0.739,0.606-1.173l0.001-0.001
			c0.144,0,0.131-0.105,0.133-0.2l0.001-0.001c0.098,0.012,0.124-0.05,0.133-0.129c0.084-0.044,0.138-0.109,0.136-0.209
			c0.021-0.021,0.041-0.041,0.062-0.062c0.09-0.04,0.141-0.105,0.139-0.206c0.088-0.088,0.175-0.175,0.263-0.263
			c0.078-0.018,0.061-0.086,0.072-0.139l-0.003,0.003c0.046-0.046,0.092-0.092,0.137-0.138c0.11-0.11,0.22-0.22,0.33-0.33
			c0.078-0.018,0.061-0.086,0.073-0.139c0.065-0.065,0.131-0.131,0.196-0.196c0.046-0.047,0.092-0.093,0.139-0.14
			c0.535-0.535,1.07-1.07,1.604-1.604c0.047-0.046,0.093-0.092,0.14-0.139c1.715-1.563,3.539-2.984,5.478-4.259
			c0.824-0.542,1.623-1.124,2.487-1.601c0.979-0.54,1.972-1.053,2.96-1.578c0.307-0.13,0.63-0.233,0.877-0.475
			c0.583-0.236,1.094-0.609,1.656-0.882c0.607-0.295,1.174-0.65,1.748-0.997c1.332-0.806,2.587-1.725,3.83-2.659
			c0.334-0.251,0.627-0.558,0.939-0.839c0.082-0.004,0.114-0.065,0.146-0.127c0.129-0.129,0.258-0.258,0.387-0.387
			c0.096-0.04,0.147-0.111,0.149-0.216C256.989,53.622,257.028,53.583,257.067,53.544z"/>
		<path fill-rule="evenodd" clip-rule="evenodd" d="M232.736,71.575c-0.116,0.435-0.421,0.772-0.606,1.173
			c-0.217,0.472-0.338,0.95-0.346,1.474c-0.011,0.672,0.522,1.097,1.113,1.179c1.054,0.146,2.017-0.19,2.973-0.518
			c1.313-0.451,2.57-1.043,3.8-1.689c1.768-0.928,3.496-1.925,5.169-3.017c1.326-0.865,2.63-1.763,3.888-2.724
			c0.836-0.639,1.643-1.315,2.443-2.001c0.984-0.844,1.901-1.754,2.793-2.688c0.82-0.858,1.562-1.787,2.076-2.872
			c0.105-0.221,0.203-0.448,0.226-0.692c0.065-0.675-0.138-0.944-0.959-1.21c-0.188-0.061-0.333-0.154-0.488-0.279
			c0.235-0.295,0.556-0.474,0.881-0.639c0.99-0.502,1.978-1.004,2.827-1.738c0.696-0.602,1.22-1.341,1.644-2.143
			c0.155-0.293,0.234-0.656,0.241-0.989c0.013-0.677,0.033-1.354-0.03-2.036c-0.078-0.85-0.229-1.685-0.347-2.528
			c-0.018-0.13-0.15-0.266-0.029-0.409c0.241,0.436,0.283,0.932,0.405,1.401c0.276,1.054,0.469,2.129,0.606,3.208
			c0.095,0.75-0.078,1.485-0.306,2.214c-0.324,1.034-0.983,1.793-1.81,2.437c-0.134,0.105-0.218,0.245-0.336,0.359
			c-0.214,0.206-0.131,0.448,0.04,0.571c0.862,0.62,0.7,1.485,0.323,2.323c-0.478,1.065-1.167,1.999-1.889,2.908
			c-0.564,0.71-1.167,1.385-1.773,2.06c-0.552,0.615-1.129,1.205-1.729,1.767c-1.082,1.014-2.185,2.005-3.359,2.917
			c-1.421,1.103-2.863,2.176-4.375,3.151c-1.502,0.969-3.025,1.903-4.606,2.743c-1.689,0.897-3.39,1.768-5.17,2.469
			c-1.177,0.464-2.369,0.892-3.653,0.998c-0.676,0.056-1.317,0.038-1.902-0.342c-0.415-0.269-0.58-0.679-0.621-1.151
			c-0.084-0.954,0.291-1.791,0.674-2.627c0.027-0.059,0.042-0.124,0.062-0.186l-0.001,0.001c0.097-0.033,0.142-0.101,0.135-0.202
			l-0.001,0.001c0.093-0.063,0.123-0.161,0.143-0.264c0.377-0.518,0.735-1.053,1.139-1.549
			C232.237,72.145,232.393,71.777,232.736,71.575z"/>
		<path fill-rule="evenodd" clip-rule="evenodd" d="M265.993,132.591c0.51-0.227,1.064-0.246,1.601-0.346
			c0.649-0.121,1.293-0.271,1.936-0.419c0.806-0.184,1.613-0.366,2.402-0.62c0.736-0.236,1.448-0.53,2.164-0.819
			c0.508-0.205,1.036-0.365,1.538-0.584c0.458-0.2,0.931-0.392,1.361-0.62c0.702-0.373,1.453-0.662,2.122-1.076
			c0.799-0.494,1.621-0.953,2.403-1.477c0.576-0.386,1.191-0.727,1.746-1.129c0.569-0.412,1.133-0.851,1.678-1.303
			c0.739-0.613,1.454-1.255,2.204-1.854c0.537-0.429,0.951-0.982,1.479-1.41c0.605-0.49,1.078-1.106,1.639-1.638
			c0.363-0.345,0.714-0.747,1.005-1.177c0.64-0.061,1.166-0.366,1.659-0.757c0.538-0.427,0.97-0.963,1.495-1.402
			c-0.086,0.447-0.422,0.75-0.671,1.09c-0.907,1.236-1.872,2.423-2.913,3.553c-1.332,1.445-2.779,2.754-4.312,3.977
			c-2.266,1.807-4.735,3.281-7.355,4.5c-2.463,1.145-5.026,2.021-7.674,2.642c-1.532,0.359-3.075,0.652-4.642,0.817
			C266.567,132.569,266.281,132.584,265.993,132.591z"/>
		<path fill-rule="evenodd" clip-rule="evenodd" d="M298.326,106.37c0.026-0.021,0.068-0.037,0.076-0.063
			c0.19-0.647,0.523-1.24,0.685-1.903c0.132-0.543,0.331-1.077,0.475-1.617c0.114-0.431,0.286-0.849,0.328-1.315
			c0.03-0.334,0.157-0.687,0.189-1.033c0.046-0.501,0.283-0.952,0.281-1.476c-0.001-0.395,0.065-0.813,0.144-1.216
			c0.062-0.316,0.085-0.644,0.086-0.966c0.003-0.653-0.002-1.306,0.078-1.954c0.03-0.241-0.199-0.502,0.057-0.721
			c0.001,0.904,0.045,1.81-0.008,2.711c-0.076,1.291-0.181,2.58-0.373,3.863c-0.243,1.634-0.579,3.245-1.03,4.832
			c-0.419,1.474-0.91,2.924-1.529,4.328c-0.274,0.62-0.547,1.24-0.828,1.856c-0.049,0.107-0.076,0.236-0.192,0.304
			c0.189-0.599,0.439-1.175,0.632-1.774c0.379-1.182,0.714-2.37,0.852-3.607C298.259,106.534,298.3,106.453,298.326,106.37z"/>
		<path fill-rule="evenodd" clip-rule="evenodd" d="M248.095,59.769c-0.247,0.242-0.57,0.344-0.877,0.475
			C247.455,59.983,247.779,59.884,248.095,59.769z"/>
		<path fill-rule="evenodd" clip-rule="evenodd" d="M233.14,71.034c0.002,0.1-0.051,0.165-0.136,0.209
			c-0.046,0.021-0.091,0.043-0.137,0.064C232.882,71.14,232.973,71.049,233.14,71.034z"/>
		<path fill-rule="evenodd" clip-rule="evenodd" d="M256.95,53.66c-0.001,0.105-0.053,0.176-0.149,0.216
			C256.801,53.77,256.798,53.662,256.95,53.66z"/>
		<path fill-rule="evenodd" clip-rule="evenodd" d="M230.718,74.249c0.006,0.102-0.038,0.17-0.135,0.202
			C230.583,74.354,230.576,74.252,230.718,74.249z"/>
		<path fill-rule="evenodd" clip-rule="evenodd" d="M230.86,73.987c-0.02,0.103-0.05,0.201-0.143,0.264
			C230.71,74.133,230.728,74.029,230.86,73.987z"/>
		<path fill-rule="evenodd" clip-rule="evenodd" d="M232.871,71.374c-0.002,0.095,0.011,0.2-0.133,0.2
			C232.717,71.464,232.76,71.397,232.871,71.374z"/>
		<path fill-rule="evenodd" clip-rule="evenodd" d="M233.341,70.766c0.001,0.101-0.05,0.167-0.139,0.206
			C233.199,70.87,233.196,70.768,233.341,70.766z"/>
		<path fill-rule="evenodd" clip-rule="evenodd" d="M294.423,115.962c0.053-0.063,0.049-0.163,0.136-0.203
			C294.562,115.859,294.57,115.962,294.423,115.962z"/>
		<path fill-rule="evenodd" clip-rule="evenodd" d="M236.292,67.682c-0.047,0.046-0.093,0.092-0.14,0.139
			C236.152,67.726,236.199,67.681,236.292,67.682z"/>
		<path fill-rule="evenodd" clip-rule="evenodd" d="M232.868,71.307c0.046-0.021,0.091-0.043,0.137-0.064
			c-0.009,0.08-0.035,0.141-0.133,0.129C232.862,71.351,232.861,71.33,232.868,71.307z"/>
		<path fill-rule="evenodd" clip-rule="evenodd" d="M233.811,70.229c-0.046,0.046-0.092,0.092-0.137,0.138
			C233.672,70.274,233.718,70.229,233.811,70.229z"/>
		<path fill-rule="evenodd" clip-rule="evenodd" d="M294.557,115.761c0.02-0.068,0.07-0.108,0.13-0.139
			C294.693,115.714,294.656,115.766,294.557,115.761z"/>
		<path fill-rule="evenodd" clip-rule="evenodd" d="M256.414,54.264c-0.032,0.062-0.064,0.123-0.146,0.127
			C256.274,54.299,256.323,54.258,256.414,54.264z"/>
		<path fill-rule="evenodd" clip-rule="evenodd" d="M234.548,69.425c-0.046,0.046-0.092,0.093-0.139,0.14
			C234.409,69.471,234.454,69.424,234.548,69.425z"/>
		<path fill-rule="evenodd" clip-rule="evenodd" d="M233.676,70.364c-0.011,0.053,0.006,0.12-0.072,0.139
			C233.604,70.444,233.613,70.39,233.676,70.364z"/>
		<path fill-rule="evenodd" clip-rule="evenodd" d="M234.214,69.76c-0.012,0.053,0.005,0.121-0.073,0.139
			C234.14,69.84,234.15,69.786,234.214,69.76z"/>
		<path fill-rule="evenodd" clip-rule="evenodd" d="M271.971,128.822c-1.584,0.172-3.174,0.194-4.762,0.139
			c-1.939-0.067-3.835-0.39-5.639-1.157c-0.917-0.39-1.748-0.92-2.557-1.489c-0.349-0.246-0.433-0.627-0.541-1.015
			c-0.151-0.544,0.051-0.93,0.46-1.23c0.465-0.342,0.962-0.61,1.576-0.392c0.253,0.09,0.386,0.321,0.591,0.47
			c1.209,0.881,2.565,1.393,4.024,1.676c0.895,0.174,1.79,0.286,2.702,0.351c1.064,0.076,2.125,0.134,3.189,0.106
			c0.956-0.025,1.906-0.139,2.858-0.244c0.926-0.102,1.83-0.275,2.736-0.477c1.586-0.355,3.047-0.996,4.428-1.833
			c0.259-0.157,0.478-0.373,0.781-0.462c0.387-0.113,0.457-0.068,0.608,0.31c0.416,1.044,0.068,1.515-0.831,2.109
			c-1.986,1.31-4.142,2.23-6.466,2.749c-0.791,0.176-1.587,0.31-2.4,0.349C272.478,128.794,272.225,128.836,271.971,128.822z"/>
		<path fill-rule="evenodd" clip-rule="evenodd" d="M274.893,114.09c0.821-0.035,1.613,0.049,2.398,0.256
			c0.778,0.206,1.422,0.571,1.909,1.233c0.537,0.73,1.073,1.459,1.368,2.323c0.284,0.829,0.022,1.436-0.724,1.801
			c-0.375,0.183-0.627,0.098-0.846-0.278c-0.246-0.422-0.499-0.838-0.686-1.292c-0.312-0.76-0.958-1.092-1.699-1.3
			c-0.858-0.241-1.739-0.365-2.615-0.254c-1.45,0.183-2.885,0.442-4.015,1.518c-0.564,0.537-1.172,1.032-1.783,1.516
			c-0.329,0.261-0.69,0.481-1.154,0.239c-0.582-0.304-0.764-1.135-0.368-1.664c0.62-0.829,1.426-1.455,2.235-2.075
			c0.586-0.449,1.169-0.911,1.847-1.224c0.744-0.344,1.519-0.567,2.335-0.68C273.697,114.125,274.298,114.064,274.893,114.09z"/>
	</g>
	<g>
		<path stroke="#004975" stroke-width="3" stroke-miterlimit="10" d="M276.981,102.588c-3.689-4.311-7.374-8.627-11.069-12.933
			c-3.194-3.722-6.401-7.433-9.581-11.124c0.413-1.017,0.909-1.147,1.857-0.599c5.257,3.035,10.557,5.995,15.917,9.023
			c13.08-17.724,27.603-33.921,46.937-45.509c0.134,0.244,0.232,0.438,0.345,0.623c0.114,0.187,0.243,0.365,0.452,0.676
			c-18.913,16.802-33.024,37.168-43.978,59.843C277.567,102.588,277.274,102.588,276.981,102.588z"/>
	</g>
</g>
<g>
	<g>
		<path fill-rule="evenodd" clip-rule="evenodd" fill="#004975" d="M262.39,39.445c0.45,0.633,0.986,1.124,1.441,1.688
			c0.447,0.554,0.887,1.112,1.342,1.659c0.611,0.735,1.21,1.482,1.858,2.185c0.87,0.945,1.72,1.906,2.675,2.776
			c1.171,1.066,2.432,2.001,3.756,2.855c1.306,0.842,2.698,1.52,4.147,2.085c1.129,0.44,2.256,0.885,3.363,1.385
			c1.888,0.852,3.676,1.871,5.384,3.036c1.147,0.782,2.257,1.612,3.309,2.52c0.72,0.622,1.408,1.278,2.121,1.906
			c0.729,0.641,1.372,1.362,2.023,2.069c1.216,1.32,2.346,2.713,3.372,4.195c1.041,1.504,1.998,3.053,2.841,4.676
			c0.919,1.772,1.717,3.593,2.382,5.477c0.487,1.381,0.899,2.781,1.238,4.202c0.245,1.026,0.425,2.067,0.57,3.115
			c0.162,1.178,0.27,2.357,0.344,3.544c0.077,1.227,0.08,2.453,0.032,3.673c-0.05,1.258-0.18,2.515-0.372,3.766
			c-0.277,1.808-0.666,3.584-1.191,5.335c-0.529,1.768-1.183,3.483-1.971,5.151c-0.653,1.384-1.243,2.799-2.139,4.056
			c-0.918,1.286-1.808,2.591-2.811,3.817c-1.07,1.307-2.221,2.538-3.45,3.691c-1.199,1.125-2.474,2.164-3.813,3.124
			c-1.933,1.386-3.991,2.552-6.14,3.559c-1.205,0.564-2.444,1.051-3.7,1.497c-1.472,0.522-2.974,0.94-4.491,1.292
			c-1.198,0.277-2.412,0.49-3.639,0.63c-1.163,0.133-2.325,0.214-3.493,0.276c-0.712,0.038-1.423,0.059-2.132,0.039
			c-1.126-0.032-2.256-0.076-3.374-0.203c-1.861-0.211-3.704-0.526-5.529-0.973c-2.141-0.524-4.217-1.219-6.251-2.06
			c-2.53-1.045-4.896-2.387-7.139-3.946c-1.042-0.724-2.03-1.523-2.995-2.352c-1.117-0.96-2.148-2.004-3.164-3.062
			c-0.859-0.894-1.639-1.863-2.39-2.852c-0.922-1.213-1.763-2.482-2.523-3.8c-0.803-1.391-1.516-2.829-2.136-4.315
			c-0.439-1.05-0.84-2.111-1.186-3.194c-0.521-1.635-0.938-3.294-1.212-4.99c-0.169-1.049-0.292-2.102-0.406-3.158
			c-0.198-1.833-0.135-3.67-0.103-5.503c0.017-1.014,0.161-2.031,0.299-3.044c0.218-1.599,0.544-3.171,0.955-4.729
			c0.359-1.362,0.822-2.689,1.32-4.006c0.623-1.648,1.384-3.228,2.219-4.778c0.589-1.093,1.255-2.134,1.957-3.154
			c0.663-0.963,1.367-1.893,2.121-2.788c0.939-1.113,1.937-2.169,2.989-3.173c0.867-0.827,1.792-1.59,2.723-2.348
			c1.229-1,2.528-1.894,3.851-2.759c1.009-0.66,2.055-1.259,3.117-1.829c1.875-1.006,3.805-1.913,5.614-3.038
			c1.423-0.885,2.797-1.845,4.124-2.876c1.642-1.275,2.593-2.952,3.177-4.907c0.39-1.307,0.661-2.632,0.856-3.977
			C262.227,40.449,262.305,39.986,262.39,39.445z M236.883,65.633c-0.063,0.026-0.073,0.08-0.072,0.139
			c-0.088,0.088-0.175,0.175-0.263,0.263c-0.145,0.002-0.142,0.104-0.139,0.206c-0.021,0.021-0.041,0.041-0.062,0.062
			c-0.167,0.015-0.258,0.106-0.273,0.273c-0.007,0.022-0.006,0.044,0.004,0.066l-0.001,0.001c-0.11,0.023-0.153,0.09-0.133,0.2
			l-0.001,0.001c-0.344,0.202-0.499,0.57-0.737,0.862c-0.404,0.497-0.762,1.031-1.139,1.549c-0.132,0.042-0.15,0.146-0.143,0.264
			l0.001-0.001c-0.143,0.002-0.136,0.105-0.135,0.203l0.001-0.001c-0.162,0.018-0.196,0.168-0.265,0.272
			c-1.124,1.705-2.059,3.511-2.864,5.385c-0.773,1.799-1.425,3.64-1.926,5.533c-0.399,1.51-0.716,3.036-0.923,4.587
			c-0.157,1.177-0.299,2.355-0.317,3.54c-0.026,1.758-0.038,3.515,0.183,5.268c0.112,0.89,0.207,1.782,0.369,2.663
			c0.376,2.053,0.908,4.065,1.621,6.031c0.695,1.919,1.534,3.77,2.523,5.552c0.169,0.305,0.289,0.655,0.593,0.873
			c-0.008,0.143,0.065,0.252,0.135,0.369c0.641,1.069,1.348,2.094,2.101,3.088c0.813,1.073,1.666,2.114,2.603,3.079
			c0.885,0.911,1.783,1.81,2.751,2.639c0.981,0.84,1.99,1.638,3.047,2.377c2.06,1.439,4.233,2.678,6.543,3.677
			c1.934,0.837,3.915,1.538,5.954,2.063c1.966,0.506,3.956,0.884,5.981,1.095c1.339,0.139,2.681,0.178,4.022,0.252
			c0.736,0.04,1.468-0.066,2.203-0.086c0.351-0.01,0.731,0.036,1.076-0.115c0.288-0.007,0.574-0.023,0.863-0.053
			c1.567-0.165,3.11-0.458,4.642-0.817c2.648-0.621,5.211-1.497,7.674-2.642c2.62-1.218,5.089-2.693,7.355-4.5
			c1.534-1.223,2.981-2.532,4.312-3.977c1.042-1.13,2.006-2.318,2.913-3.553c0.249-0.34,0.585-0.643,0.671-1.09l-0.002,0.002
			c0.148,0,0.14-0.103,0.136-0.203l-0.002,0.002c0.099,0.006,0.136-0.047,0.13-0.139c0.012-0.041,0.013-0.092,0.038-0.122
			c0.607-0.734,1.07-1.559,1.499-2.402c0.185-0.363,0.322-0.752,0.543-1.099c0.116-0.068,0.143-0.196,0.192-0.304
			c0.281-0.616,0.554-1.237,0.828-1.856c0.62-1.404,1.11-2.854,1.529-4.328c0.451-1.586,0.787-3.198,1.03-4.832
			c0.191-1.283,0.297-2.572,0.373-3.863c0.053-0.901,0.009-1.807,0.008-2.711c-0.119-0.757-0.101-1.524-0.188-2.285
			c-0.117-1.024-0.254-2.044-0.443-3.056c-0.381-2.044-0.93-4.043-1.635-6.002c-0.634-1.762-1.384-3.469-2.24-5.134
			c-1.02-1.984-2.203-3.863-3.539-5.647c-0.18-0.241-0.294-0.55-0.6-0.683c-0.11-0.078-0.069-0.22-0.152-0.323
			c-0.988-1.233-2.058-2.396-3.151-3.534c-0.554-0.577-1.172-1.093-1.759-1.637c-0.742-0.687-1.519-1.333-2.322-1.947
			c-1.333-1.02-2.718-1.962-4.169-2.812c-1.31-0.767-2.665-1.436-4.063-2.021c-2.07-0.865-4.203-1.586-6.127-2.78
			c-1.686-1.047-3.279-2.21-4.71-3.586c-1.069-1.027-2.046-2.139-3.009-3.265c-0.692-0.81-1.378-1.625-2.055-2.448
			c-0.288-0.35-0.537-0.743-0.911-1.055c-0.171,0.883-0.298,1.737-0.494,2.578c-0.399,1.712-0.946,3.36-1.998,4.798
			c-0.063,0.086-0.101,0.171-0.094,0.276c-0.039,0.039-0.078,0.078-0.117,0.116c-0.152,0.002-0.149,0.11-0.149,0.216
			c-0.129,0.129-0.258,0.258-0.387,0.387c-0.09-0.005-0.14,0.036-0.146,0.127c-0.312,0.281-0.604,0.588-0.939,0.839
			c-1.243,0.934-2.498,1.853-3.83,2.659c-0.574,0.347-1.142,0.703-1.748,0.997c-0.562,0.273-1.072,0.646-1.656,0.882
			c-0.316,0.115-0.64,0.214-0.877,0.475c-0.987,0.525-1.981,1.039-2.96,1.578c-0.865,0.477-1.663,1.059-2.487,1.601
			c-1.94,1.275-3.764,2.696-5.478,4.259c-0.093-0.001-0.141,0.044-0.14,0.139c-0.535,0.535-1.07,1.07-1.604,1.604
			c-0.094-0.001-0.139,0.047-0.139,0.14c-0.065,0.065-0.131,0.131-0.196,0.196c-0.064,0.026-0.074,0.079-0.073,0.139
			c-0.11,0.11-0.22,0.22-0.33,0.33c-0.093-0.001-0.139,0.045-0.137,0.138L236.883,65.633z"/>
		<path fill-rule="evenodd" clip-rule="evenodd" fill="#0073B9" d="M260.273,48.812c-0.007-0.105,0.031-0.19,0.094-0.276
			c1.052-1.438,1.598-3.086,1.998-4.798c0.196-0.841,0.323-1.694,0.494-2.578c0.375,0.312,0.623,0.705,0.911,1.055
			c0.678,0.823,1.363,1.638,2.055,2.448c0.962,1.126,1.94,2.238,3.009,3.265c1.431,1.376,3.024,2.54,4.71,3.586
			c1.924,1.194,4.057,1.915,6.127,2.78c1.398,0.585,2.753,1.254,4.063,2.021c1.451,0.849,2.836,1.792,4.169,2.812
			c0.803,0.614,1.58,1.26,2.322,1.947c0.588,0.545,1.205,1.061,1.759,1.637c1.093,1.138,2.163,2.3,3.151,3.534
			c0.082,0.103,0.041,0.245,0.152,0.323c-0.114,0.237,0.095,0.388,0.152,0.579c0.231,0.77,0.385,1.557,0.418,2.358
			c0.064,1.537,0.028,3.065-0.251,4.593c-0.105,0.576-0.203,1.161-0.323,1.735c-0.275,1.311-0.725,2.569-1.29,3.784
			c-0.384,0.825-0.802,1.629-1.257,2.422c-0.476,0.831-1.007,1.619-1.55,2.399c-0.606,0.871-1.304,1.674-2,2.475
			c-0.626,0.722-1.268,1.433-1.926,2.127c-0.804,0.848-1.686,1.617-2.536,2.419c-0.938,0.884-1.936,1.697-2.905,2.544
			c-0.605,0.528-1.251,1.011-1.893,1.495c-1.491,1.122-2.959,2.273-4.496,3.332c-0.991-0.674-1.981-1.348-2.973-2.021
			c-1.524-1.034-3.093-1.997-4.651-2.979c-1.427-0.899-2.928-1.637-4.509-2.208c-1.388-0.502-2.819-0.84-4.305-0.764
			c-0.79,0.04-1.583,0.087-2.373,0.176c-0.719,0.081-1.429,0.192-2.138,0.333c-1.172,0.233-2.216,0.767-3.239,1.354
			c-1.684,0.966-3.279,2.04-4.468,3.618c-0.738,0.979-1.349,2.032-1.853,3.149c-0.354,0.787-0.546,1.628-0.763,2.454
			c-0.168,0.639-0.29,1.32-0.228,1.99c0.041,0.444,0.05,0.885,0.051,1.328c0.001,0.466,0.099,0.915,0.211,1.36
			c0.179,0.708,0.469,1.378,0.757,2.045c0.35,0.811,0.797,1.571,1.478,2.154c0.604,0.517,1.237,1,1.919,1.414
			c-0.517,0.089-1.043,0.096-1.562,0.193c-0.607,0.115-1.225,0.178-1.845,0.223c-0.5,0.036-1.005,0.02-1.498,0.08
			c-0.852,0.104-1.7,0.007-2.549,0.025c-0.373,0.008-0.746-0.089-1.121-0.11c-0.521-0.029-1.017-0.192-1.528-0.276
			c-0.799-0.131-1.56-0.41-2.311-0.74c-0.685-0.301-1.322-0.662-1.925-1.09c-0.452-0.321-0.848-0.709-1.224-1.115
			c-0.304-0.218-0.424-0.568-0.593-0.873c-0.989-1.783-1.828-3.633-2.523-5.552c-0.712-1.966-1.244-3.978-1.621-6.031
			c-0.161-0.88-0.257-1.773-0.369-2.663c-0.22-1.752-0.208-3.51-0.183-5.268c0.017-1.185,0.16-2.363,0.317-3.54
			c0.206-1.551,0.523-3.077,0.923-4.587c0.501-1.893,1.153-3.734,1.926-5.533c0.805-1.874,1.741-3.68,2.864-5.385
			c0.069-0.105,0.103-0.254,0.265-0.272c-0.02,0.062-0.035,0.127-0.062,0.186c-0.383,0.835-0.758,1.672-0.674,2.627
			c0.041,0.472,0.206,0.882,0.621,1.151c0.586,0.379,1.226,0.397,1.902,0.342c1.284-0.106,2.476-0.534,3.653-0.998
			c1.78-0.701,3.481-1.572,5.17-2.469c1.581-0.84,3.104-1.774,4.606-2.743c1.511-0.975,2.954-2.047,4.375-3.151
			c1.174-0.912,2.277-1.903,3.359-2.917c0.601-0.562,1.177-1.152,1.729-1.767c0.605-0.675,1.209-1.35,1.773-2.06
			c0.722-0.909,1.411-1.843,1.889-2.908c0.377-0.839,0.539-1.704-0.323-2.323c-0.171-0.123-0.254-0.365-0.04-0.571
			c0.118-0.114,0.202-0.254,0.336-0.359c0.827-0.644,1.486-1.403,1.81-2.437c0.228-0.728,0.4-1.464,0.306-2.214
			c-0.136-1.079-0.329-2.155-0.606-3.208c-0.123-0.469-0.164-0.966-0.406-1.401c-0.091-0.325-0.182-0.65-0.287-1.025
			c-0.03,0.184-0.094,0.297-0.1,0.435c-0.032,0.821-0.211,1.62-0.378,2.42c-0.209,1.002-0.556,1.959-1.038,2.857
			C261.095,47.766,260.749,48.339,260.273,48.812z"/>
		<path fill-rule="evenodd" clip-rule="evenodd" fill="#FEFEFE" d="M248.347,112.231c-0.682-0.414-1.315-0.897-1.919-1.414
			c-0.681-0.583-1.128-1.343-1.478-2.154c-0.288-0.667-0.578-1.337-0.757-2.045c-0.113-0.445-0.211-0.894-0.211-1.36
			c-0.001-0.443-0.01-0.884-0.051-1.328c-0.062-0.67,0.06-1.351,0.228-1.99c0.216-0.826,0.408-1.667,0.763-2.454
			c0.503-1.117,1.115-2.17,1.853-3.149c1.189-1.578,2.784-2.652,4.468-3.618c1.023-0.587,2.067-1.121,3.239-1.354
			c0.709-0.141,1.419-0.252,2.138-0.333c0.79-0.089,1.582-0.136,2.373-0.176c1.486-0.075,2.917,0.262,4.305,0.764
			c1.582,0.572,3.082,1.309,4.509,2.208c1.557,0.982,3.127,1.945,4.651,2.979c0.992,0.673,1.982,1.347,2.973,2.021
			c0.617,0.4,1.222,0.819,1.918,1.081c0.587,0.221,1.155,0.52,1.785,0.585c1.373,0.143,2.596-0.363,3.791-0.947
			c0.743-0.363,1.434-0.817,2.127-1.265c1.296-0.838,2.597-1.671,3.878-2.531c1.535-1.03,3.011-2.151,4.696-2.94
			c1.091-0.511,2.189-0.848,3.439-0.575c1.357,0.296,2.487,0.868,3.241,2.067c0.9,1.432,1.286,3.013,1.349,4.686
			c0.033,0.886-0.089,1.766-0.122,2.649c-0.026,0.082-0.066,0.163-0.076,0.248c-0.137,1.237-0.473,2.426-0.852,3.607
			c-0.192,0.599-0.443,1.175-0.632,1.774c-0.221,0.347-0.358,0.735-0.543,1.099c-0.429,0.842-0.892,1.668-1.499,2.402
			c-0.025,0.031-0.026,0.081-0.038,0.122c-0.06,0.031-0.11,0.071-0.13,0.139l0.002-0.002c-0.087,0.04-0.084,0.14-0.136,0.203
			l0.002-0.002c-0.525,0.439-0.957,0.975-1.495,1.402c-0.494,0.392-1.019,0.696-1.659,0.757c-0.067-0.003-0.135-0.017-0.2-0.006
			c-0.795,0.135-1.572,0.118-2.302-0.277c-0.473-0.257-0.893-0.584-1.301-0.938c-0.768-0.666-1.479-1.39-2.163-2.134
			c-0.547-0.595-1.12-1.164-1.682-1.742c-0.84-0.863-1.752-1.655-2.659-2.45c-0.899-0.788-1.834-1.494-2.953-1.96
			c-0.79-0.328-1.611-0.503-2.414-0.337c-1.363,0.283-2.644,0.833-3.843,1.557c-1.228,0.741-2.456,1.482-3.691,2.21
			c-0.991,0.585-1.993,1.153-2.991,1.728c-1.064,0.613-2.115,1.25-3.196,1.832c-1.023,0.551-2.083,1.032-3.153,1.491
			c-2.133,0.915-4.34,1.46-6.675,1.419c-0.755-0.013-1.51-0.014-2.265-0.06c-0.594-0.036-1.178-0.119-1.755-0.244
			C250.192,113.252,249.259,112.761,248.347,112.231z"/>
		<path fill-rule="evenodd" clip-rule="evenodd" fill="#00598D" d="M248.347,112.231c0.913,0.53,1.845,1.021,2.886,1.246
			c0.577,0.125,1.161,0.208,1.755,0.244c0.755,0.046,1.51,0.046,2.265,0.06c2.335,0.041,4.542-0.504,6.675-1.419
			c1.069-0.459,2.129-0.94,3.153-1.491c1.081-0.582,2.132-1.219,3.196-1.832c0.997-0.575,1.999-1.142,2.991-1.728
			c1.235-0.729,2.463-1.47,3.691-2.21c1.199-0.723,2.481-1.274,3.843-1.557c0.803-0.166,1.624,0.008,2.414,0.337
			c1.12,0.465,2.055,1.172,2.953,1.96c0.907,0.795,1.819,1.587,2.659,2.45c0.562,0.577,1.136,1.146,1.682,1.742
			c0.684,0.744,1.395,1.469,2.163,2.134c0.409,0.354,0.828,0.681,1.301,0.938c0.73,0.396,1.507,0.413,2.302,0.277
			c0.064-0.011,0.133,0.003,0.2,0.006c-0.291,0.43-0.642,0.833-1.005,1.177c-0.561,0.532-1.034,1.149-1.639,1.638
			c-0.529,0.428-0.943,0.981-1.479,1.41c-0.75,0.599-1.465,1.241-2.204,1.854c-0.545,0.452-1.109,0.891-1.678,1.303
			c-0.556,0.402-1.17,0.744-1.747,1.129c-0.782,0.523-1.604,0.982-2.403,1.477c-0.669,0.414-1.419,0.703-2.122,1.076
			c-0.43,0.229-0.904,0.42-1.361,0.62c-0.502,0.219-1.03,0.379-1.538,0.584c-0.715,0.289-1.428,0.582-2.164,0.819
			c-0.789,0.254-1.596,0.435-2.402,0.62c-0.644,0.147-1.287,0.297-1.936,0.419c-0.537,0.1-1.091,0.12-1.601,0.346
			c-0.345,0.15-0.725,0.105-1.076,0.115c-0.735,0.02-1.467,0.127-2.203,0.086c-1.341-0.073-2.683-0.112-4.022-0.252
			c-2.025-0.21-4.015-0.588-5.981-1.095c-2.039-0.525-4.019-1.226-5.954-2.063c-2.31-1-4.482-2.238-6.543-3.677
			c-1.057-0.738-2.066-1.537-3.047-2.377c-0.968-0.829-1.866-1.728-2.751-2.639c-0.937-0.965-1.791-2.006-2.603-3.079
			c-0.753-0.994-1.459-2.019-2.101-3.088c-0.07-0.117-0.143-0.227-0.135-0.369c0.376,0.406,0.772,0.794,1.224,1.115
			c0.603,0.428,1.24,0.789,1.925,1.09c0.75,0.329,1.512,0.608,2.311,0.74c0.511,0.084,1.007,0.247,1.528,0.276
			c0.375,0.021,0.748,0.118,1.121,0.11c0.849-0.019,1.697,0.079,2.549-0.025c0.493-0.06,0.998-0.044,1.498-0.08
			c0.62-0.045,1.238-0.108,1.845-0.223C247.304,112.326,247.83,112.32,248.347,112.231z M275.177,124.091
			c0.254,0.014,0.507-0.028,0.757-0.04c0.813-0.039,1.609-0.172,2.4-0.349c2.324-0.519,4.481-1.439,6.466-2.75
			c0.899-0.593,1.247-1.065,0.831-2.109c-0.151-0.378-0.221-0.423-0.608-0.31c-0.303,0.089-0.523,0.305-0.781,0.462
			c-1.381,0.836-2.842,1.478-4.428,1.833c-0.906,0.203-1.81,0.375-2.736,0.477c-0.952,0.105-1.902,0.219-2.858,0.244
			c-1.064,0.028-2.125-0.031-3.189-0.106c-0.912-0.065-1.807-0.178-2.702-0.351c-1.459-0.283-2.815-0.795-4.024-1.676
			c-0.204-0.149-0.337-0.38-0.591-0.47c-0.614-0.218-1.112,0.05-1.576,0.392c-0.408,0.301-0.611,0.686-0.46,1.23
			c0.108,0.387,0.191,0.769,0.541,1.015c0.81,0.569,1.64,1.099,2.557,1.489c1.803,0.767,3.699,1.09,5.639,1.157
			C272.003,124.285,273.593,124.263,275.177,124.091z M278.099,109.358c-0.595-0.025-1.196,0.035-1.801,0.119
			c-0.816,0.113-1.591,0.336-2.335,0.68c-0.678,0.314-1.261,0.775-1.847,1.224c-0.808,0.62-1.614,1.246-2.235,2.075
			c-0.395,0.528-0.214,1.359,0.368,1.664c0.463,0.242,0.825,0.022,1.154-0.239c0.611-0.484,1.219-0.979,1.783-1.516
			c1.13-1.076,2.565-1.335,4.015-1.518c0.876-0.111,1.758,0.013,2.615,0.254c0.741,0.208,1.387,0.54,1.699,1.3
			c0.187,0.454,0.44,0.87,0.686,1.292c0.22,0.376,0.471,0.462,0.846,0.278c0.747-0.365,1.008-0.972,0.725-1.801
			c-0.296-0.864-0.832-1.593-1.369-2.323c-0.487-0.662-1.131-1.027-1.909-1.233C279.712,109.407,278.92,109.323,278.099,109.358z"/>
		<path fill-rule="evenodd" clip-rule="evenodd" fill="#00598D" d="M301.532,101.639c0.033-0.884,0.155-1.763,0.122-2.649
			c-0.063-1.672-0.449-3.254-1.349-4.686c-0.754-1.199-1.884-1.771-3.241-2.067c-1.249-0.273-2.348,0.064-3.439,0.575
			c-1.685,0.789-3.162,1.91-4.696,2.94c-1.282,0.86-2.582,1.693-3.878,2.531c-0.693,0.448-1.385,0.902-2.127,1.265
			c-1.195,0.584-2.418,1.09-3.791,0.947c-0.63-0.066-1.198-0.365-1.785-0.585c-0.696-0.262-1.301-0.681-1.918-1.081
			c1.537-1.059,3.006-2.21,4.496-3.332c0.642-0.483,1.288-0.966,1.893-1.495c0.969-0.847,1.967-1.659,2.905-2.544
			c0.85-0.802,1.732-1.571,2.536-2.419c0.658-0.694,1.3-1.404,1.926-2.127c0.695-0.801,1.393-1.604,2-2.475
			c0.543-0.78,1.074-1.568,1.55-2.399c0.455-0.793,0.873-1.597,1.257-2.422c0.565-1.215,1.015-2.473,1.29-3.784
			c0.12-0.574,0.218-1.159,0.323-1.735c0.28-1.527,0.315-3.056,0.251-4.593c-0.033-0.801-0.187-1.588-0.418-2.358
			c-0.057-0.192-0.267-0.342-0.152-0.579c0.307,0.133,0.42,0.442,0.6,0.683c1.336,1.784,2.519,3.663,3.539,5.647
			c0.856,1.665,1.606,3.372,2.24,5.134c0.705,1.959,1.254,3.958,1.635,6.002c0.189,1.011,0.326,2.032,0.443,3.056
			c0.087,0.761,0.069,1.528,0.188,2.285c-0.256,0.219-0.028,0.48-0.057,0.721c-0.08,0.648-0.075,1.301-0.078,1.954
			c-0.002,0.323-0.025,0.651-0.086,0.966c-0.079,0.404-0.145,0.821-0.144,1.216c0.001,0.524-0.235,0.975-0.281,1.476
			c-0.032,0.346-0.16,0.699-0.189,1.033c-0.042,0.466-0.214,0.884-0.328,1.315c-0.143,0.54-0.342,1.074-0.475,1.617
			c-0.162,0.664-0.495,1.256-0.685,1.903C301.6,101.602,301.557,101.618,301.532,101.639z"/>
		<path fill-rule="evenodd" clip-rule="evenodd" fill="#FEFEFE" d="M260.273,48.812c0.477-0.474,0.823-1.046,1.135-1.627
			c0.482-0.898,0.83-1.855,1.038-2.857c0.167-0.8,0.346-1.6,0.378-2.42c0.005-0.138,0.07-0.251,0.1-0.435
			c0.105,0.375,0.196,0.7,0.288,1.025c-0.121,0.143,0.011,0.279,0.029,0.409c0.118,0.842,0.269,1.678,0.347,2.528
			c0.063,0.682,0.043,1.359,0.03,2.036c-0.007,0.333-0.086,0.696-0.241,0.989c-0.424,0.803-0.947,1.541-1.644,2.143
			c-0.849,0.734-1.837,1.236-2.827,1.738c-0.325,0.165-0.646,0.344-0.881,0.639c0.154,0.125,0.299,0.218,0.488,0.279
			c0.821,0.265,1.024,0.535,0.959,1.21c-0.023,0.244-0.122,0.471-0.226,0.692c-0.514,1.086-1.256,2.014-2.076,2.872
			c-0.892,0.934-1.809,1.844-2.793,2.688c-0.8,0.686-1.607,1.362-2.443,2.001c-1.257,0.961-2.561,1.859-3.888,2.724
			c-1.673,1.092-3.401,2.088-5.169,3.017c-1.23,0.646-2.487,1.239-3.8,1.689c-0.956,0.328-1.919,0.664-2.973,0.518
			c-0.591-0.082-1.123-0.506-1.113-1.179c0.008-0.523,0.129-1.001,0.346-1.474c0.184-0.401,0.49-0.739,0.606-1.173l0.001-0.001
			c0.144,0,0.131-0.105,0.133-0.2l0.001-0.001c0.098,0.012,0.124-0.05,0.133-0.129c0.084-0.044,0.138-0.109,0.136-0.209
			c0.021-0.021,0.041-0.041,0.062-0.062c0.09-0.04,0.141-0.105,0.139-0.206c0.088-0.088,0.175-0.175,0.263-0.263
			c0.078-0.018,0.061-0.086,0.072-0.139l-0.003,0.003c0.046-0.046,0.092-0.092,0.137-0.138c0.11-0.11,0.22-0.22,0.33-0.33
			c0.078-0.018,0.061-0.086,0.073-0.139c0.065-0.065,0.131-0.131,0.196-0.196c0.046-0.047,0.092-0.093,0.139-0.14
			c0.535-0.535,1.07-1.07,1.604-1.604c0.047-0.046,0.093-0.092,0.14-0.139c1.715-1.563,3.539-2.984,5.478-4.259
			c0.824-0.542,1.623-1.124,2.487-1.601c0.979-0.54,1.972-1.053,2.96-1.578c0.307-0.13,0.63-0.233,0.877-0.475
			c0.583-0.236,1.094-0.609,1.656-0.882c0.607-0.295,1.174-0.65,1.748-0.997c1.332-0.806,2.587-1.725,3.83-2.659
			c0.334-0.251,0.627-0.558,0.939-0.839c0.082-0.004,0.114-0.065,0.146-0.127c0.129-0.129,0.258-0.258,0.387-0.387
			c0.096-0.04,0.147-0.111,0.149-0.216C260.195,48.89,260.234,48.851,260.273,48.812z"/>
		<path fill-rule="evenodd" clip-rule="evenodd" fill="#92C4E3" d="M235.942,66.844c-0.116,0.435-0.421,0.772-0.606,1.173
			c-0.217,0.472-0.338,0.95-0.346,1.474c-0.011,0.672,0.522,1.097,1.113,1.179c1.054,0.146,2.017-0.19,2.973-0.518
			c1.313-0.451,2.57-1.043,3.8-1.689c1.768-0.928,3.496-1.925,5.169-3.017c1.326-0.865,2.63-1.763,3.888-2.724
			c0.836-0.639,1.643-1.315,2.443-2.001c0.984-0.844,1.901-1.754,2.793-2.688c0.82-0.858,1.562-1.787,2.076-2.872
			c0.105-0.221,0.203-0.448,0.226-0.692c0.065-0.675-0.138-0.944-0.959-1.21c-0.188-0.061-0.333-0.154-0.488-0.279
			c0.235-0.295,0.556-0.474,0.881-0.639c0.99-0.502,1.978-1.004,2.827-1.738c0.696-0.602,1.22-1.341,1.644-2.143
			c0.155-0.293,0.234-0.656,0.241-0.989c0.013-0.677,0.033-1.354-0.03-2.036c-0.078-0.85-0.229-1.685-0.347-2.528
			c-0.018-0.13-0.15-0.266-0.029-0.409c0.241,0.436,0.283,0.932,0.405,1.401c0.276,1.054,0.469,2.129,0.606,3.208
			c0.095,0.75-0.078,1.485-0.306,2.214c-0.324,1.034-0.983,1.793-1.81,2.437c-0.134,0.105-0.218,0.245-0.336,0.359
			c-0.214,0.206-0.131,0.448,0.04,0.571c0.862,0.62,0.7,1.485,0.323,2.323c-0.478,1.065-1.167,1.999-1.889,2.908
			c-0.564,0.71-1.167,1.385-1.773,2.06c-0.552,0.615-1.129,1.205-1.729,1.767c-1.082,1.013-2.185,2.005-3.359,2.917
			c-1.421,1.103-2.863,2.176-4.375,3.151c-1.502,0.969-3.025,1.903-4.606,2.743c-1.689,0.897-3.39,1.768-5.17,2.469
			c-1.178,0.464-2.369,0.892-3.653,0.998c-0.676,0.056-1.317,0.038-1.902-0.342c-0.415-0.269-0.58-0.679-0.621-1.151
			c-0.084-0.954,0.291-1.791,0.674-2.627c0.027-0.059,0.042-0.124,0.062-0.186l-0.001,0.001c0.097-0.033,0.142-0.101,0.135-0.203
			l-0.001,0.001c0.093-0.063,0.123-0.161,0.143-0.264c0.377-0.518,0.735-1.053,1.139-1.549
			C235.443,67.414,235.599,67.046,235.942,66.844z"/>
		<path fill-rule="evenodd" clip-rule="evenodd" fill="#0073B9" d="M269.199,127.86c0.51-0.227,1.064-0.246,1.601-0.346
			c0.649-0.121,1.293-0.271,1.936-0.419c0.806-0.184,1.613-0.366,2.402-0.62c0.736-0.236,1.448-0.53,2.164-0.819
			c0.508-0.205,1.036-0.365,1.538-0.584c0.458-0.2,0.931-0.392,1.361-0.62c0.702-0.373,1.453-0.662,2.122-1.076
			c0.799-0.494,1.621-0.953,2.403-1.477c0.576-0.386,1.191-0.727,1.747-1.129c0.569-0.412,1.133-0.851,1.678-1.303
			c0.739-0.613,1.454-1.255,2.204-1.854c0.537-0.429,0.951-0.982,1.479-1.41c0.605-0.49,1.078-1.106,1.639-1.638
			c0.363-0.345,0.714-0.747,1.005-1.177c0.64-0.061,1.166-0.366,1.659-0.757c0.538-0.427,0.97-0.963,1.495-1.402
			c-0.086,0.447-0.422,0.75-0.671,1.09c-0.907,1.236-1.872,2.423-2.913,3.553c-1.332,1.445-2.779,2.754-4.312,3.977
			c-2.266,1.807-4.735,3.281-7.355,4.5c-2.463,1.145-5.026,2.021-7.674,2.642c-1.532,0.359-3.075,0.652-4.642,0.817
			C269.773,127.837,269.487,127.852,269.199,127.86z"/>
		<path fill-rule="evenodd" clip-rule="evenodd" fill="#0073B9" d="M301.532,101.639c0.026-0.021,0.068-0.037,0.076-0.063
			c0.19-0.647,0.523-1.24,0.685-1.903c0.132-0.543,0.331-1.077,0.475-1.617c0.114-0.431,0.287-0.85,0.328-1.315
			c0.03-0.334,0.157-0.687,0.189-1.033c0.046-0.501,0.283-0.952,0.281-1.476c-0.001-0.395,0.065-0.813,0.144-1.216
			c0.062-0.316,0.085-0.644,0.086-0.966c0.003-0.653-0.002-1.306,0.078-1.954c0.03-0.241-0.199-0.502,0.057-0.721
			c0.001,0.904,0.045,1.81-0.008,2.711c-0.076,1.291-0.181,2.58-0.373,3.863c-0.243,1.634-0.579,3.245-1.03,4.832
			c-0.419,1.474-0.91,2.924-1.529,4.328c-0.274,0.62-0.547,1.24-0.828,1.856c-0.049,0.107-0.076,0.236-0.192,0.304
			c0.189-0.599,0.439-1.175,0.632-1.774c0.379-1.182,0.714-2.37,0.852-3.607C301.465,101.802,301.506,101.721,301.532,101.639z"/>
		<path fill-rule="evenodd" clip-rule="evenodd" fill="#00598D" d="M251.301,55.038c-0.247,0.242-0.569,0.344-0.877,0.475
			C250.661,55.252,250.985,55.152,251.301,55.038z"/>
		<path fill-rule="evenodd" clip-rule="evenodd" fill="#00598D" d="M236.346,66.303c0.002,0.1-0.051,0.165-0.136,0.209
			c-0.046,0.021-0.091,0.043-0.137,0.064C236.088,66.408,236.179,66.318,236.346,66.303z"/>
		<path fill-rule="evenodd" clip-rule="evenodd" fill="#0073B9" d="M260.156,48.929c-0.001,0.105-0.053,0.176-0.149,0.216
			C260.007,49.039,260.004,48.931,260.156,48.929z"/>
		<path fill-rule="evenodd" clip-rule="evenodd" fill="#0073B9" d="M233.924,69.518c0.006,0.102-0.038,0.17-0.135,0.203
			C233.789,69.623,233.782,69.52,233.924,69.518z"/>
		<path fill-rule="evenodd" clip-rule="evenodd" fill="#0073B9" d="M234.066,69.255c-0.02,0.103-0.05,0.201-0.143,0.264
			C233.916,69.402,233.934,69.298,234.066,69.255z"/>
		<path fill-rule="evenodd" clip-rule="evenodd" fill="#92C4E3" d="M236.077,66.642c-0.002,0.095,0.011,0.2-0.133,0.2
			C235.923,66.733,235.966,66.665,236.077,66.642z"/>
		<path fill-rule="evenodd" clip-rule="evenodd" fill="#00598D" d="M236.547,66.034c0.001,0.101-0.05,0.167-0.139,0.206
			C236.405,66.139,236.402,66.037,236.547,66.034z"/>
		<path fill-rule="evenodd" clip-rule="evenodd" fill="#0073B9" d="M297.629,111.23c0.053-0.063,0.049-0.163,0.136-0.203
			C297.768,111.127,297.776,111.231,297.629,111.23z"/>
		<path fill-rule="evenodd" clip-rule="evenodd" fill="#00598D" d="M239.498,62.95c-0.047,0.046-0.093,0.092-0.14,0.139
			C239.358,62.995,239.405,62.95,239.498,62.95z"/>
		<path fill-rule="evenodd" clip-rule="evenodd" fill="#92C4E3" d="M236.074,66.576c0.046-0.021,0.091-0.043,0.137-0.064
			c-0.009,0.08-0.035,0.141-0.133,0.129C236.068,66.62,236.067,66.598,236.074,66.576z"/>
		<path fill-rule="evenodd" clip-rule="evenodd" fill="#00598D" d="M237.017,65.498c-0.046,0.046-0.092,0.092-0.137,0.138
			C236.878,65.543,236.924,65.497,237.017,65.498z"/>
		<path fill-rule="evenodd" clip-rule="evenodd" fill="#0073B9" d="M297.763,111.029c0.02-0.068,0.07-0.108,0.13-0.139
			C297.898,110.982,297.862,111.035,297.763,111.029z"/>
		<path fill-rule="evenodd" clip-rule="evenodd" fill="#0073B9" d="M259.62,49.532c-0.032,0.062-0.064,0.123-0.146,0.127
			C259.48,49.568,259.529,49.527,259.62,49.532z"/>
		<path fill-rule="evenodd" clip-rule="evenodd" fill="#00598D" d="M237.754,64.693c-0.046,0.046-0.092,0.093-0.139,0.14
			C237.615,64.74,237.66,64.692,237.754,64.693z"/>
		<path fill-rule="evenodd" clip-rule="evenodd" fill="#00598D" d="M236.883,65.633c-0.011,0.053,0.006,0.12-0.072,0.139
			C236.81,65.712,236.819,65.658,236.883,65.633z"/>
		<path fill-rule="evenodd" clip-rule="evenodd" fill="#00598D" d="M237.42,65.029c-0.012,0.053,0.005,0.121-0.073,0.139
			C237.346,65.108,237.356,65.054,237.42,65.029z"/>
		<path fill-rule="evenodd" clip-rule="evenodd" fill="#FEFEFE" d="M275.177,124.091c-1.584,0.172-3.174,0.194-4.762,0.139
			c-1.939-0.067-3.835-0.39-5.639-1.157c-0.917-0.39-1.748-0.92-2.557-1.489c-0.349-0.246-0.433-0.627-0.541-1.015
			c-0.151-0.544,0.051-0.93,0.46-1.23c0.465-0.342,0.962-0.61,1.576-0.392c0.253,0.09,0.386,0.321,0.591,0.47
			c1.209,0.881,2.565,1.393,4.024,1.676c0.895,0.174,1.79,0.286,2.702,0.351c1.064,0.076,2.125,0.134,3.189,0.106
			c0.956-0.025,1.906-0.139,2.858-0.244c0.926-0.102,1.83-0.275,2.736-0.477c1.586-0.355,3.047-0.996,4.428-1.833
			c0.259-0.157,0.478-0.373,0.781-0.462c0.387-0.113,0.457-0.068,0.608,0.31c0.416,1.044,0.068,1.516-0.831,2.109
			c-1.986,1.31-4.142,2.23-6.466,2.75c-0.791,0.176-1.587,0.31-2.4,0.349C275.684,124.063,275.431,124.105,275.177,124.091z"/>
		<path fill-rule="evenodd" clip-rule="evenodd" fill="#FEFEFE" d="M278.099,109.358c0.821-0.035,1.613,0.049,2.398,0.256
			c0.778,0.206,1.422,0.571,1.909,1.233c0.537,0.73,1.073,1.459,1.369,2.323c0.284,0.829,0.022,1.436-0.725,1.801
			c-0.375,0.183-0.627,0.098-0.846-0.278c-0.246-0.422-0.499-0.838-0.686-1.292c-0.312-0.76-0.958-1.092-1.699-1.3
			c-0.858-0.241-1.739-0.365-2.615-0.254c-1.45,0.183-2.885,0.442-4.015,1.518c-0.564,0.537-1.172,1.032-1.783,1.516
			c-0.329,0.261-0.69,0.481-1.154,0.239c-0.582-0.304-0.764-1.135-0.368-1.664c0.62-0.829,1.426-1.455,2.235-2.075
			c0.586-0.449,1.169-0.911,1.847-1.224c0.744-0.344,1.519-0.567,2.335-0.68C276.903,109.393,277.504,109.333,278.099,109.358z"/>
	</g>
	<g>
		<path fill="#FFFFFF" stroke="#004975" stroke-width="3" stroke-miterlimit="10" d="M280.187,97.857
			c-3.689-4.311-7.374-8.627-11.069-12.933c-3.194-3.722-6.401-7.433-9.581-11.124c0.413-1.017,0.909-1.147,1.857-0.599
			c5.257,3.035,10.557,5.995,15.917,9.023c13.08-17.724,27.603-33.921,46.936-45.509c0.134,0.244,0.232,0.438,0.345,0.623
			c0.114,0.187,0.243,0.365,0.452,0.676c-18.913,16.802-33.024,37.168-43.978,59.843C280.773,97.857,280.48,97.857,280.187,97.857z"
			/>
	</g>
</g>
</svg>
