<?xml version="1.0" encoding="utf-8"?>
<!-- Generator: Adobe Illustrator 17.1.0, SVG Export Plug-In . SVG Version: 6.00 Build 0)  -->
<!DOCTYPE svg PUBLIC "-//W3C//DTD SVG 1.1//EN" "http://www.w3.org/Graphics/SVG/1.1/DTD/svg11.dtd">
<svg version="1.1" id="Layer_1" xmlns="http://www.w3.org/2000/svg" xmlns:xlink="http://www.w3.org/1999/xlink" x="0px" y="0px"
	 viewBox="0 0 960 560" enable-background="new 0 0 960 560" xml:space="preserve">
<g>
	<g>
		<path fill-rule="evenodd" clip-rule="evenodd" fill="#004975" d="M463.207,18.324c2.686,3.781,5.888,6.715,8.604,10.081
			c2.667,3.308,5.3,6.644,8.017,9.91c3.652,4.389,7.23,8.852,11.095,13.047c5.196,5.641,10.271,11.385,15.975,16.578
			c6.994,6.366,14.523,11.951,22.433,17.052c7.8,5.031,16.111,9.076,24.768,12.454c6.741,2.631,13.473,5.288,20.082,8.27
			c11.274,5.087,21.954,11.173,32.156,18.13c6.849,4.67,13.477,9.625,19.762,15.05c4.301,3.714,8.411,7.634,12.67,11.38
			c4.353,3.831,8.192,8.135,12.081,12.359c7.26,7.884,14.013,16.206,20.137,25.051c6.22,8.982,11.934,18.232,16.965,27.925
			c5.492,10.581,10.254,21.456,14.224,32.709c2.911,8.247,5.369,16.612,7.393,25.097c1.463,6.127,2.541,12.347,3.402,18.606
			c0.968,7.035,1.611,14.075,2.054,21.165c0.458,7.326,0.48,14.649,0.19,21.939c-0.3,7.512-1.074,15.02-2.22,22.492
			c-1.654,10.796-3.98,21.403-7.112,31.864c-3.16,10.557-7.066,20.804-11.769,30.765c-3.902,8.264-7.422,16.718-12.777,24.222
			c-5.483,7.682-10.798,15.476-16.791,22.796c-6.391,7.808-13.265,15.16-20.602,22.047c-7.159,6.72-14.773,12.922-22.776,18.657
			c-11.548,8.275-23.833,15.241-36.671,21.255c-7.199,3.371-14.596,6.275-22.097,8.938c-8.79,3.12-17.761,5.616-26.823,7.714
			c-7.153,1.657-14.404,2.926-21.731,3.762c-6.944,0.792-13.887,1.281-20.861,1.65c-4.252,0.226-8.499,0.354-12.731,0.235
			c-6.724-0.19-13.471-0.455-20.149-1.212c-11.114-1.26-22.122-3.14-33.023-5.809c-12.788-3.132-25.183-7.283-37.332-12.303
			c-15.112-6.244-29.243-14.257-42.635-23.565c-6.222-4.325-12.121-9.097-17.886-14.05c-6.67-5.731-12.828-11.97-18.897-18.289
			c-5.127-5.339-9.788-11.124-14.274-17.031c-5.505-7.245-10.527-14.823-15.069-22.694c-4.796-8.309-9.054-16.897-12.76-25.772
			c-2.619-6.272-5.02-12.606-7.083-19.074c-3.114-9.764-5.601-19.673-7.238-29.805c-1.012-6.266-1.742-12.551-2.424-18.86
			c-1.185-10.95-0.806-21.917-0.617-32.864c0.104-6.055,0.959-12.129,1.784-18.178c1.304-9.551,3.249-18.94,5.705-28.243
			c2.147-8.132,4.907-16.059,7.882-23.923c3.723-9.841,8.265-19.278,13.25-28.536c3.517-6.53,7.493-12.745,11.69-18.837
			c3.96-5.75,8.164-11.305,12.67-16.65c5.606-6.649,11.569-12.956,17.853-18.948c5.18-4.94,10.705-9.495,16.263-14.02
			c7.339-5.972,15.101-11.313,23-16.479c6.027-3.942,12.274-7.518,18.617-10.922c11.198-6.008,22.727-11.424,33.527-18.142
			c8.499-5.287,16.702-11.018,24.63-17.174c9.806-7.615,15.486-17.63,18.973-29.303c2.331-7.806,3.945-15.719,5.115-23.753
			C462.232,24.318,462.697,21.556,463.207,18.324z M310.866,174.726c-0.378,0.154-0.435,0.475-0.43,0.828
			c-0.524,0.524-1.047,1.047-1.57,1.571c-0.866,0.014-0.85,0.623-0.833,1.233c-0.123,0.123-0.246,0.247-0.369,0.369
			c-0.997,0.09-1.542,0.631-1.629,1.63c-0.042,0.134-0.033,0.265,0.026,0.392l-0.008,0.007c-0.658,0.137-0.916,0.539-0.794,1.194
			l-0.007,0.007c-2.054,1.207-2.981,3.405-4.4,5.151c-2.414,2.966-4.552,6.157-6.805,9.253c-0.79,0.252-0.895,0.875-0.854,1.578
			l0.007-0.009c-0.852,0.014-0.812,0.625-0.808,1.21l0.005-0.009c-0.969,0.109-1.172,1.003-1.584,1.627
			c-6.71,10.182-12.296,20.967-17.106,32.16c-4.616,10.741-8.513,21.738-11.503,33.042c-2.386,9.019-4.278,18.131-5.511,27.394
			c-0.936,7.029-1.787,14.063-1.891,21.141c-0.154,10.497-0.224,20.993,1.091,31.46c0.668,5.312,1.238,10.645,2.202,15.902
			c2.248,12.26,5.426,24.277,9.679,36.018c4.152,11.461,9.162,22.515,15.071,33.161c1.01,1.82,1.725,3.913,3.541,5.215
			c-0.047,0.852,0.389,1.508,0.807,2.204c3.831,6.387,8.05,12.507,12.545,18.443c4.854,6.409,9.952,12.623,15.549,18.389
			c5.284,5.444,10.646,10.811,16.427,15.762c5.856,5.015,11.884,9.785,18.197,14.194c12.306,8.596,25.28,15.993,39.075,21.963
			c11.551,4.999,23.38,9.186,35.556,12.322c11.741,3.025,23.629,5.281,35.723,6.538c7.999,0.831,16.011,1.065,24.021,1.503
			c4.395,0.241,8.767-0.395,13.157-0.516c2.098-0.058,4.364,0.214,6.426-0.685c1.723-0.043,3.431-0.136,5.156-0.317
			c9.361-0.983,18.572-2.734,27.724-4.878c15.815-3.706,31.12-8.938,45.833-15.778c15.648-7.276,30.396-16.081,43.929-26.874
			c9.162-7.306,17.801-15.124,25.756-23.753c6.221-6.748,11.983-13.842,17.399-21.221c1.49-2.029,3.495-3.842,4.01-6.509
			l-0.013,0.013c0.881,0.003,0.833-0.615,0.814-1.215l-0.013,0.013c0.591,0.035,0.811-0.279,0.777-0.83
			c0.073-0.246,0.078-0.546,0.228-0.729c3.622-4.384,6.389-9.313,8.951-14.344c1.105-2.17,1.926-4.488,3.242-6.561
			c0.692-0.405,0.855-1.173,1.147-1.813c1.677-3.681,3.308-7.386,4.942-11.087c3.7-8.384,6.629-17.048,9.133-25.849
			c2.695-9.475,4.701-19.098,6.154-28.858c1.142-7.664,1.771-15.362,2.225-23.071c0.316-5.379,0.051-10.791,0.046-16.19
			c-0.711-4.52-0.601-9.103-1.121-13.648c-0.7-6.114-1.518-12.21-2.644-18.25c-2.277-12.207-5.555-24.149-9.764-35.847
			c-3.785-10.524-8.266-20.718-13.379-30.662c-6.093-11.848-13.16-23.071-21.138-33.724c-1.078-1.439-1.755-3.283-3.585-4.077
			c-0.659-0.464-0.414-1.313-0.906-1.927c-5.904-7.366-12.288-14.307-18.819-21.105c-3.309-3.445-6.997-6.527-10.508-9.779
			c-4.432-4.105-9.074-7.962-13.867-11.628c-7.961-6.092-16.232-11.719-24.896-16.792c-7.824-4.581-15.916-8.578-24.266-12.069
			c-12.362-5.168-25.099-9.471-36.591-16.603c-10.07-6.251-19.582-13.2-28.131-21.418c-6.382-6.133-12.22-12.772-17.968-19.5
			c-4.135-4.839-8.229-9.708-12.276-14.62c-1.722-2.09-3.206-4.44-5.443-6.302c-1.022,5.276-1.78,10.373-2.952,15.396
			c-2.385,10.224-5.649,20.067-11.93,28.658c-0.376,0.515-0.606,1.022-0.564,1.651c-0.233,0.232-0.466,0.464-0.699,0.695
			c-0.905,0.01-0.887,0.657-0.888,1.29c-0.771,0.771-1.543,1.542-2.314,2.314c-0.538-0.031-0.836,0.213-0.872,0.76
			c-1.862,1.68-3.608,3.513-5.605,5.012c-7.426,5.576-14.918,11.066-22.876,15.881c-3.43,2.075-6.819,4.197-10.442,5.957
			c-3.354,1.63-6.405,3.858-9.888,5.27c-1.887,0.684-3.821,1.28-5.237,2.835c-5.896,3.135-11.83,6.202-17.677,9.427
			c-5.163,2.848-9.933,6.327-14.855,9.563c-11.585,7.614-22.478,16.101-32.719,25.435c-0.556-0.004-0.84,0.266-0.834,0.828
			c-3.194,3.194-6.388,6.387-9.581,9.581c-0.562-0.006-0.831,0.278-0.827,0.834c-0.391,0.39-0.781,0.781-1.171,1.171
			c-0.381,0.153-0.44,0.475-0.436,0.829c-0.657,0.657-1.314,1.315-1.971,1.972c-0.556-0.005-0.831,0.267-0.821,0.825
			L310.866,174.726z"/>
		<path fill-rule="evenodd" clip-rule="evenodd" fill="#0073B9" d="M450.56,74.269c-0.042-0.629,0.187-1.136,0.564-1.651
			c6.282-8.591,9.545-18.433,11.93-28.658c1.172-5.023,1.93-10.12,2.952-15.396c2.237,1.863,3.721,4.213,5.443,6.302
			c4.047,4.913,8.141,9.782,12.276,14.62c5.748,6.727,11.587,13.366,17.968,19.5c8.549,8.218,18.061,15.168,28.131,21.418
			c11.491,7.132,24.228,11.435,36.591,16.603c8.35,3.491,16.442,7.488,24.266,12.069c8.664,5.073,16.935,10.7,24.896,16.792
			c4.793,3.667,9.436,7.524,13.867,11.628c3.511,3.252,7.199,6.334,10.508,9.779c6.53,6.798,12.915,13.739,18.819,21.105
			c0.492,0.614,0.247,1.463,0.905,1.927c-0.682,1.413,0.566,2.315,0.909,3.458c1.38,4.596,2.299,9.302,2.497,14.083
			c0.38,9.179,0.169,18.307-1.501,27.429c-0.629,3.44-1.211,6.932-1.93,10.36c-1.643,7.83-4.331,15.343-7.707,22.597
			c-2.293,4.927-4.792,9.729-7.507,14.462c-2.844,4.961-6.011,9.666-9.256,14.328c-3.621,5.203-7.791,9.997-11.942,14.784
			c-3.742,4.314-7.573,8.559-11.503,12.702c-4.803,5.066-10.068,9.659-15.145,14.447c-5.599,5.282-11.563,10.135-17.35,15.192
			c-3.613,3.156-7.47,6.04-11.307,8.928c-8.902,6.699-17.675,13.574-26.852,19.901c-5.919-4.024-11.833-8.054-17.756-12.071
			c-9.102-6.174-18.474-11.925-27.776-17.789c-8.522-5.372-17.484-9.775-26.93-13.189c-8.291-2.996-16.838-5.014-25.713-4.563
			c-4.72,0.239-9.453,0.518-14.171,1.05c-4.295,0.484-8.537,1.147-12.769,1.988c-7.001,1.391-13.233,4.581-19.345,8.086
			c-10.057,5.769-19.585,12.183-26.685,21.606c-4.407,5.848-8.058,12.135-11.064,18.807c-2.116,4.698-3.262,9.726-4.554,14.656
			c-1.001,3.818-1.731,7.883-1.36,11.888c0.246,2.653,0.301,5.287,0.305,7.93c0.004,2.781,0.589,5.464,1.261,8.122
			c1.068,4.226,2.8,8.229,4.521,12.214c2.093,4.847,4.761,9.381,8.828,12.865c3.607,3.09,7.39,5.971,11.462,8.446
			c-3.089,0.533-6.229,0.57-9.33,1.155c-3.625,0.684-7.318,1.061-11.02,1.33c-2.986,0.215-6.002,0.116-8.946,0.477
			c-5.088,0.624-10.151,0.04-15.222,0.151c-2.226,0.049-4.458-0.529-6.696-0.655c-3.114-0.176-6.075-1.148-9.125-1.649
			c-4.773-0.784-9.319-2.451-13.801-4.417c-4.09-1.795-7.894-3.952-11.498-6.509c-2.698-1.915-5.063-4.232-7.311-6.659
			c-1.815-1.302-2.53-3.395-3.541-5.215c-5.91-10.646-10.919-21.7-15.071-33.161c-4.254-11.741-7.432-23.758-9.679-36.018
			c-0.964-5.257-1.534-10.589-2.202-15.902c-1.316-10.467-1.245-20.962-1.091-31.46c0.104-7.078,0.955-14.111,1.891-21.141
			c1.233-9.263,3.126-18.375,5.511-27.394c2.99-11.305,6.887-22.301,11.503-33.042c4.81-11.193,10.396-21.978,17.106-32.16
			c0.412-0.624,0.615-1.518,1.584-1.627c-0.121,0.371-0.208,0.757-0.369,1.11c-2.285,4.988-4.527,9.988-4.026,15.687
			c0.248,2.817,1.232,5.267,3.71,6.873c3.497,2.266,7.325,2.374,11.362,2.041c7.668-0.633,14.785-3.189,21.817-5.959
			c10.629-4.187,20.79-9.389,30.876-14.748c9.442-5.017,18.54-10.594,27.511-16.383c9.027-5.823,17.64-12.228,26.127-18.818
			c7.013-5.445,13.598-11.367,20.062-17.42c3.587-3.359,7.032-6.881,10.329-10.556c3.616-4.032,7.221-8.063,10.588-12.301
			c4.311-5.427,8.427-11.005,11.282-17.365c2.249-5.009,3.217-10.175-1.929-13.876c-1.02-0.733-1.518-2.178-0.239-3.41
			c0.706-0.679,1.206-1.518,2.009-2.144c4.937-3.847,8.876-8.381,10.81-14.555c1.362-4.35,2.391-8.741,1.826-13.22
			c-0.814-6.446-1.967-12.868-3.616-19.161c-0.734-2.801-0.98-5.767-2.423-8.369c-0.544-1.941-1.089-3.882-1.717-6.12
			c-0.18,1.099-0.563,1.774-0.595,2.596c-0.192,4.901-1.26,9.676-2.256,14.455c-1.246,5.982-3.323,11.7-6.202,17.061
			C455.472,68.02,453.407,71.44,450.56,74.269z"/>
		<path fill-rule="evenodd" clip-rule="evenodd" fill="#FEFEFE" d="M379.335,453.027c-4.072-2.475-7.855-5.356-11.462-8.446
			c-4.068-3.484-6.735-8.019-8.828-12.865c-1.72-3.985-3.452-7.987-4.521-12.214c-0.672-2.658-1.258-5.341-1.261-8.122
			c-0.004-2.643-0.059-5.277-0.305-7.93c-0.372-4.005,0.358-8.07,1.36-11.888c1.293-4.93,2.438-9.958,4.554-14.656
			c3.006-6.672,6.657-12.959,11.064-18.807c7.1-9.423,16.628-15.837,26.685-21.606c6.112-3.505,12.343-6.696,19.345-8.086
			c4.232-0.841,8.474-1.504,12.769-1.988c4.718-0.531,9.451-0.81,14.171-1.05c8.875-0.451,17.422,1.567,25.713,4.563
			c9.445,3.415,18.408,7.817,26.93,13.189c9.302,5.864,18.675,11.615,27.776,17.789c5.923,4.018,11.838,8.047,17.756,12.071
			c3.683,2.39,7.299,4.893,11.455,6.455c3.507,1.318,6.896,3.104,10.661,3.496c8.198,0.854,15.502-2.165,22.639-5.656
			c4.436-2.171,8.566-4.879,12.706-7.556c7.743-5.006,15.509-9.979,23.164-15.118c9.165-6.152,17.986-12.847,28.048-17.559
			c6.516-3.051,13.075-5.064,20.537-3.435c8.104,1.769,14.852,5.185,19.357,12.347c5.376,8.55,7.679,17.998,8.055,27.986
			c0.2,5.292-0.529,10.547-0.728,15.824c-0.155,0.492-0.395,0.976-0.452,1.479c-0.82,7.39-2.826,14.486-5.087,21.544
			c-1.147,3.578-2.643,7.018-3.772,10.595c-1.317,2.073-2.138,4.391-3.243,6.561c-2.562,5.031-5.329,9.96-8.951,14.344
			c-0.15,0.182-0.155,0.483-0.228,0.729c-0.36,0.184-0.655,0.425-0.777,0.83l0.013-0.013c-0.518,0.239-0.5,0.838-0.814,1.215
			l0.013-0.013c-3.135,2.619-5.715,5.824-8.927,8.373c-2.947,2.339-6.084,4.155-9.909,4.523c-0.398-0.015-0.808-0.101-1.193-0.035
			c-4.749,0.808-9.388,0.707-13.747-1.657c-2.828-1.534-5.332-3.485-7.772-5.599c-4.588-3.975-8.835-8.301-12.917-12.747
			c-3.265-3.555-6.688-6.953-10.047-10.401c-5.018-5.154-10.463-9.885-15.882-14.633c-5.369-4.704-10.953-8.925-17.639-11.704
			c-4.719-1.962-9.622-3.004-14.419-2.01c-8.138,1.687-15.793,4.976-22.955,9.296c-7.333,4.425-14.666,8.85-22.041,13.202
			c-5.921,3.495-11.905,6.884-17.862,10.318c-6.354,3.662-12.633,7.466-19.087,10.941c-6.113,3.291-12.443,6.161-18.83,8.902
			c-12.737,5.465-25.917,8.723-39.865,8.475c-4.511-0.079-9.017-0.085-13.528-0.356c-3.549-0.214-7.037-0.714-10.484-1.458
			C390.354,459.124,384.785,456.194,379.335,453.027z"/>
		<path fill-rule="evenodd" clip-rule="evenodd" fill="#00598D" d="M379.335,453.027c5.45,3.167,11.018,6.097,17.236,7.441
			c3.447,0.744,6.935,1.244,10.484,1.458c4.511,0.272,9.017,0.277,13.528,0.356c13.947,0.248,27.127-3.01,39.865-8.475
			c6.387-2.741,12.717-5.611,18.83-8.902c6.454-3.475,12.732-7.279,19.087-10.941c5.957-3.434,11.941-6.823,17.862-10.318
			c7.376-4.352,14.708-8.777,22.041-13.202c7.162-4.321,14.817-7.609,22.955-9.296c4.797-0.994,9.7,0.048,14.419,2.01
			c6.686,2.779,12.27,7,17.639,11.704c5.419,4.748,10.864,9.479,15.882,14.633c3.359,3.448,6.783,6.847,10.047,10.401
			c4.083,4.446,8.33,8.772,12.917,12.747c2.44,2.114,4.944,4.065,7.772,5.599c4.36,2.364,8.999,2.465,13.747,1.657
			c0.385-0.066,0.795,0.02,1.193,0.035c-1.737,2.569-3.833,4.973-6.001,7.03c-3.35,3.179-6.175,6.86-9.789,9.783
			c-3.157,2.555-5.63,5.859-8.836,8.42c-4.478,3.577-8.748,7.413-13.161,11.072c-3.257,2.701-6.621,5.321-10.021,7.784
			c-3.318,2.402-6.99,4.441-10.431,6.743c-4.673,3.126-9.582,5.867-14.353,8.82c-3.995,2.472-8.476,4.198-12.671,6.427
			c-2.568,1.365-5.396,2.51-8.131,3.704c-2.997,1.309-6.149,2.263-9.185,3.49c-4.273,1.726-8.529,3.479-12.923,4.891
			c-4.712,1.516-9.529,2.601-14.344,3.703c-3.844,0.879-7.689,1.775-11.564,2.5c-3.209,0.6-6.517,0.715-9.563,2.069
			c-2.062,0.898-4.328,0.627-6.426,0.685c-4.389,0.121-8.762,0.757-13.157,0.516c-8.01-0.438-16.021-0.671-24.021-1.503
			c-12.093-1.257-23.981-3.513-35.723-6.538c-12.176-3.137-24.005-7.324-35.556-12.322c-13.795-5.97-26.769-13.367-39.075-21.963
			c-6.313-4.409-12.341-9.179-18.197-14.194c-5.781-4.951-11.143-10.318-16.427-15.762c-5.597-5.766-10.695-11.98-15.549-18.389
			c-4.495-5.936-8.714-12.056-12.545-18.443c-0.418-0.696-0.853-1.353-0.807-2.204c2.248,2.427,4.613,4.743,7.311,6.659
			c3.604,2.556,7.408,4.714,11.498,6.509c4.482,1.966,9.028,3.633,13.801,4.417c3.051,0.501,6.012,1.473,9.125,1.649
			c2.239,0.126,4.47,0.704,6.696,0.655c5.071-0.111,10.134,0.473,15.222-0.151c2.944-0.361,5.96-0.262,8.946-0.477
			c3.701-0.268,7.394-0.645,11.02-1.33C373.106,453.597,376.246,453.56,379.335,453.027z M539.574,523.858
			c1.518,0.085,3.028-0.168,4.521-0.239c4.857-0.234,9.611-1.029,14.333-2.083c13.88-3.099,26.762-8.597,38.62-16.421
			c5.367-3.542,7.447-6.359,4.962-12.593c-0.901-2.258-1.318-2.524-3.63-1.849c-1.812,0.53-3.121,1.823-4.667,2.76
			c-8.248,4.993-16.974,8.825-26.447,10.945c-5.411,1.211-10.811,2.241-16.339,2.852c-5.683,0.629-11.358,1.31-17.067,1.458
			c-6.352,0.164-12.692-0.183-19.045-0.636c-5.446-0.388-10.791-1.06-16.137-2.098c-8.716-1.692-16.815-4.75-24.035-10.012
			c-1.22-0.888-2.015-2.268-3.527-2.804c-3.668-1.302-6.64,0.297-9.414,2.34c-2.439,1.796-3.648,4.1-2.747,7.347
			c0.643,2.314,1.142,4.593,3.229,6.061c4.836,3.398,9.795,6.566,15.273,8.896c10.77,4.579,22.094,6.511,33.676,6.909
			C520.615,525.015,530.113,524.885,539.574,523.858z M557.025,435.869c-3.556-0.151-7.142,0.21-10.753,0.711
			c-4.874,0.677-9.502,2.009-13.943,4.063c-4.047,1.873-7.532,4.628-11.029,7.312c-4.828,3.702-9.641,7.444-13.346,12.395
			c-2.361,3.155-1.275,8.118,2.2,9.935c2.767,1.446,4.927,0.129,6.89-1.427c3.65-2.893,7.279-5.847,10.65-9.056
			c6.751-6.428,15.321-7.974,23.981-9.067c5.233-0.66,10.497,0.077,15.619,1.518c4.427,1.244,8.284,3.227,10.148,7.764
			c1.115,2.713,2.626,5.197,4.095,7.716c1.311,2.246,2.813,2.757,5.054,1.662c4.461-2.179,6.022-5.804,4.327-10.757
			c-1.766-5.162-4.966-9.515-8.173-13.875c-2.909-3.955-6.754-6.136-11.4-7.364C566.657,436.16,561.93,435.659,557.025,435.869z"/>
		<path fill-rule="evenodd" clip-rule="evenodd" fill="#00598D" d="M696.973,389.768c0.199-5.277,0.928-10.532,0.728-15.824
			c-0.376-9.989-2.679-19.436-8.055-27.986c-4.504-7.162-11.253-10.578-19.357-12.347c-7.461-1.629-14.02,0.385-20.537,3.435
			c-10.062,4.712-18.883,11.406-28.048,17.559c-7.655,5.139-15.421,10.111-23.164,15.118c-4.139,2.677-8.27,5.385-12.706,7.556
			c-7.137,3.491-14.441,6.51-22.639,5.656c-3.765-0.392-7.154-2.178-10.661-3.496c-4.157-1.562-7.772-4.065-11.455-6.455
			c9.177-6.327,17.95-13.202,26.852-19.901c3.837-2.888,7.694-5.772,11.307-8.928c5.787-5.057,11.751-9.91,17.35-15.192
			c5.077-4.788,10.342-9.381,15.145-14.447c3.93-4.144,7.761-8.388,11.503-12.702c4.151-4.787,8.321-9.581,11.942-14.784
			c3.245-4.661,6.412-9.367,9.256-14.328c2.715-4.734,5.214-9.535,7.507-14.462c3.377-7.254,6.064-14.767,7.707-22.597
			c0.718-3.428,1.3-6.92,1.93-10.36c1.671-9.122,1.882-18.25,1.501-27.429c-0.198-4.781-1.117-9.487-2.497-14.083
			c-0.343-1.143-1.592-2.045-0.909-3.458c1.832,0.795,2.509,2.638,3.586,4.077c7.979,10.653,15.046,21.876,21.138,33.724
			c5.114,9.943,9.594,20.138,13.379,30.662c4.209,11.697,7.486,23.64,9.764,35.847c1.127,6.04,1.945,12.135,2.644,18.25
			c0.52,4.545,0.411,9.128,1.121,13.648c-1.532,1.307-0.165,2.867-0.343,4.304c-0.479,3.869-0.45,7.772-0.468,11.67
			c-0.01,1.927-0.147,3.885-0.516,5.772c-0.471,2.41-0.867,4.906-0.86,7.265c0.009,3.127-1.403,5.822-1.68,8.814
			c-0.192,2.069-0.953,4.176-1.131,6.17c-0.25,2.782-1.278,5.281-1.961,7.856c-0.856,3.226-2.046,6.416-2.834,9.659
			c-0.965,3.963-2.954,7.5-4.09,11.366C697.378,389.549,697.127,389.644,696.973,389.768z"/>
		<path fill-rule="evenodd" clip-rule="evenodd" fill="#FEFEFE" d="M450.56,74.269c2.847-2.829,4.913-6.249,6.776-9.72
			c2.879-5.36,4.956-11.078,6.202-17.061c0.996-4.78,2.064-9.554,2.256-14.455c0.032-0.822,0.415-1.497,0.595-2.596
			c0.628,2.238,1.172,4.179,1.717,6.12c-0.722,0.853,0.066,1.665,0.176,2.44c0.706,5.029,1.605,10.019,2.073,15.095
			c0.375,4.07,0.259,8.115,0.18,12.16c-0.039,1.99-0.514,4.16-1.438,5.907c-2.532,4.795-5.657,9.205-9.816,12.801
			c-5.068,4.381-10.971,7.38-16.882,10.38c-1.944,0.986-3.857,2.053-5.263,3.817c0.921,0.745,1.787,1.3,2.912,1.664
			c4.904,1.585,6.116,3.194,5.726,7.224c-0.14,1.457-0.726,2.814-1.351,4.132c-3.071,6.484-7.503,12.028-12.401,17.154
			c-5.329,5.576-10.807,11.011-16.681,16.053c-4.775,4.098-9.599,8.136-14.589,11.951c-7.509,5.741-15.296,11.103-23.217,16.27
			c-9.994,6.52-20.313,12.472-30.873,18.017c-7.345,3.857-14.85,7.397-22.693,10.089c-5.708,1.958-11.459,3.964-17.755,3.094
			c-3.529-0.488-6.709-3.023-6.645-7.038c0.051-3.125,0.771-5.981,2.066-8.802c1.101-2.398,2.924-4.411,3.617-7.007l0.007-0.007
			c0.863-0.001,0.781-0.63,0.794-1.194l0.008-0.008c0.586,0.072,0.741-0.298,0.793-0.773c0.503-0.265,0.822-0.65,0.81-1.249
			c0.123-0.123,0.246-0.246,0.369-0.369c0.536-0.237,0.841-0.629,0.833-1.233c0.523-0.524,1.047-1.047,1.57-1.571
			c0.463-0.11,0.363-0.512,0.43-0.828l-0.018,0.02c0.273-0.275,0.547-0.55,0.821-0.825c0.657-0.657,1.315-1.315,1.971-1.972
			c0.464-0.109,0.362-0.516,0.436-0.829c0.39-0.39,0.78-0.78,1.171-1.171c0.276-0.278,0.552-0.556,0.827-0.834
			c3.194-3.194,6.388-6.388,9.581-9.581c0.278-0.276,0.556-0.552,0.834-0.828c10.24-9.334,21.134-17.821,32.719-25.435
			c4.923-3.235,9.692-6.715,14.855-9.563c5.847-3.224,11.781-6.291,17.677-9.427c1.836-0.778,3.761-1.391,5.237-2.835
			c3.483-1.411,6.534-3.64,9.888-5.27c3.623-1.76,7.012-3.883,10.442-5.957c7.958-4.815,15.449-10.305,22.876-15.881
			c1.997-1.499,3.744-3.333,5.605-5.012c0.492-0.023,0.683-0.39,0.872-0.76c0.771-0.771,1.542-1.542,2.314-2.314
			c0.572-0.24,0.881-0.661,0.888-1.29C450.094,74.733,450.327,74.501,450.56,74.269z"/>
		<path fill-rule="evenodd" clip-rule="evenodd" fill="#92C4E3" d="M305.252,181.958c-0.693,2.597-2.516,4.61-3.617,7.007
			c-1.295,2.82-2.016,5.677-2.066,8.802c-0.065,4.015,3.116,6.55,6.645,7.038c6.295,0.871,12.047-1.135,17.755-3.094
			c7.842-2.692,15.347-6.232,22.693-10.089c10.56-5.545,20.879-11.497,30.873-18.017c7.921-5.167,15.708-10.53,23.217-16.27
			c4.99-3.816,9.814-7.853,14.589-11.951c5.874-5.042,11.352-10.477,16.681-16.053c4.898-5.126,9.33-10.67,12.401-17.154
			c0.625-1.318,1.211-2.675,1.351-4.132c0.389-4.031-0.822-5.64-5.726-7.224c-1.125-0.364-1.99-0.919-2.912-1.664
			c1.406-1.763,3.319-2.83,5.263-3.817c5.912-3,11.814-5.999,16.882-10.38c4.159-3.596,7.284-8.006,9.816-12.801
			c0.923-1.748,1.399-3.918,1.438-5.907c0.078-4.045,0.194-8.089-0.18-12.16c-0.468-5.076-1.367-10.066-2.073-15.095
			c-0.109-0.775-0.898-1.587-0.176-2.44c1.442,2.602,1.688,5.568,2.422,8.369c1.649,6.294,2.802,12.715,3.616,19.161
			c0.565,4.479-0.463,8.871-1.826,13.22c-1.934,6.174-5.873,10.708-10.81,14.555c-0.803,0.625-1.303,1.464-2.009,2.144
			c-1.279,1.232-0.781,2.677,0.239,3.41c5.146,3.701,4.178,8.867,1.929,13.876c-2.856,6.359-6.971,11.938-11.282,17.365
			c-3.367,4.239-6.972,8.27-10.588,12.301c-3.297,3.675-6.742,7.196-10.329,10.556c-6.465,6.053-13.05,11.975-20.062,17.42
			c-8.487,6.59-17.1,12.995-26.127,18.818c-8.971,5.788-18.069,11.366-27.511,16.383c-10.086,5.359-20.247,10.561-30.876,14.748
			c-7.032,2.77-14.149,5.326-21.817,5.959c-4.037,0.333-7.865,0.226-11.362-2.041c-2.478-1.606-3.462-4.056-3.71-6.873
			c-0.501-5.699,1.74-10.699,4.026-15.687c0.161-0.353,0.248-0.739,0.369-1.11l-0.005,0.009c0.581-0.196,0.847-0.601,0.808-1.21
			l-0.007,0.009c0.556-0.379,0.732-0.964,0.854-1.578c2.253-3.096,4.391-6.287,6.805-9.253
			C302.271,185.363,303.197,183.165,305.252,181.958z"/>
		<path fill-rule="evenodd" clip-rule="evenodd" fill="#0073B9" d="M503.869,546.367c3.045-1.354,6.353-1.469,9.563-2.069
			c3.875-0.725,7.72-1.621,11.564-2.5c4.815-1.102,9.632-2.187,14.344-3.703c4.393-1.412,8.65-3.165,12.923-4.891
			c3.035-1.227,6.187-2.181,9.185-3.49c2.734-1.194,5.562-2.339,8.131-3.704c4.195-2.229,8.676-3.956,12.671-6.427
			c4.77-2.953,9.68-5.694,14.353-8.82c3.441-2.302,7.113-4.341,10.431-6.743c3.4-2.463,6.764-5.083,10.021-7.784
			c4.413-3.659,8.683-7.495,13.161-11.072c3.206-2.561,5.679-5.865,8.836-8.42c3.613-2.924,6.439-6.604,9.789-9.783
			c2.168-2.058,4.264-4.461,6.001-7.03c3.825-0.367,6.962-2.184,9.909-4.523c3.213-2.549,5.792-5.754,8.927-8.373
			c-0.515,2.667-2.52,4.479-4.01,6.509c-5.416,7.379-11.178,14.473-17.399,21.221c-7.955,8.629-16.594,16.447-25.756,23.753
			c-13.534,10.793-28.282,19.598-43.929,26.874c-14.712,6.84-30.018,12.072-45.833,15.778c-9.152,2.144-18.364,3.895-27.724,4.878
			C507.299,546.232,505.592,546.324,503.869,546.367z"/>
		<path fill-rule="evenodd" clip-rule="evenodd" fill="#0073B9" d="M696.973,389.768c0.154-0.124,0.405-0.218,0.451-0.374
			c1.136-3.867,3.126-7.403,4.09-11.366c0.789-3.243,1.978-6.434,2.834-9.659c0.683-2.575,1.711-5.074,1.961-7.856
			c0.178-1.994,0.939-4.101,1.131-6.17c0.277-2.992,1.688-5.687,1.68-8.814c-0.007-2.359,0.389-4.855,0.86-7.265
			c0.37-1.887,0.506-3.845,0.516-5.772c0.018-3.898-0.011-7.802,0.468-11.67c0.178-1.437-1.189-2.997,0.343-4.304
			c0.005,5.398,0.271,10.811-0.046,16.19c-0.454,7.709-1.083,15.408-2.225,23.071c-1.453,9.759-3.458,19.383-6.154,28.858
			c-2.504,8.801-5.433,17.465-9.133,25.849c-1.634,3.701-3.265,7.406-4.942,11.087c-0.292,0.64-0.455,1.408-1.146,1.813
			c1.129-3.576,2.625-7.017,3.772-10.595c2.261-7.057,4.266-14.154,5.087-21.544C696.578,390.743,696.818,390.26,696.973,389.768z"
			/>
		<path fill-rule="evenodd" clip-rule="evenodd" fill="#00598D" d="M396.976,111.448c-1.476,1.443-3.401,2.056-5.237,2.835
			C393.155,112.728,395.09,112.132,396.976,111.448z"/>
		<path fill-rule="evenodd" clip-rule="evenodd" fill="#00598D" d="M307.664,178.727c0.012,0.599-0.307,0.984-0.81,1.249
			c-0.273,0.127-0.546,0.254-0.819,0.381C306.121,179.358,306.666,178.817,307.664,178.727z"/>
		<path fill-rule="evenodd" clip-rule="evenodd" fill="#0073B9" d="M449.861,74.964c-0.007,0.629-0.316,1.049-0.888,1.29
			C448.974,75.622,448.956,74.975,449.861,74.964z"/>
		<path fill-rule="evenodd" clip-rule="evenodd" fill="#0073B9" d="M293.199,197.93c0.039,0.609-0.228,1.014-0.808,1.21
			C292.388,198.555,292.347,197.944,293.199,197.93z"/>
		<path fill-rule="evenodd" clip-rule="evenodd" fill="#0073B9" d="M294.046,196.362c-0.122,0.614-0.298,1.198-0.854,1.578
			C293.151,197.236,293.257,196.614,294.046,196.362z"/>
		<path fill-rule="evenodd" clip-rule="evenodd" fill="#92C4E3" d="M306.053,180.756c-0.014,0.565,0.069,1.193-0.794,1.194
			C305.137,181.296,305.395,180.893,306.053,180.756z"/>
		<path fill-rule="evenodd" clip-rule="evenodd" fill="#00598D" d="M308.865,177.125c0.009,0.604-0.297,0.996-0.833,1.233
			C308.015,177.748,307.999,177.139,308.865,177.125z"/>
		<path fill-rule="evenodd" clip-rule="evenodd" fill="#0073B9" d="M673.663,447.05c0.314-0.377,0.295-0.976,0.814-1.215
			C674.496,446.435,674.544,447.054,673.663,447.05z"/>
		<path fill-rule="evenodd" clip-rule="evenodd" fill="#00598D" d="M326.489,158.707c-0.278,0.276-0.556,0.552-0.834,0.828
			C325.649,158.972,325.933,158.703,326.489,158.707z"/>
		<path fill-rule="evenodd" clip-rule="evenodd" fill="#92C4E3" d="M306.034,180.357c0.273-0.127,0.546-0.254,0.819-0.381
			c-0.052,0.475-0.208,0.845-0.793,0.773C306.001,180.622,305.993,180.491,306.034,180.357z"/>
		<path fill-rule="evenodd" clip-rule="evenodd" fill="#00598D" d="M311.668,173.921c-0.274,0.275-0.548,0.55-0.821,0.825
			C310.837,174.189,311.112,173.916,311.668,173.921z"/>
		<path fill-rule="evenodd" clip-rule="evenodd" fill="#0073B9" d="M674.464,445.849c0.122-0.405,0.417-0.646,0.777-0.83
			C675.274,445.57,675.055,445.884,674.464,445.849z"/>
		<path fill-rule="evenodd" clip-rule="evenodd" fill="#0073B9" d="M446.659,78.568c-0.19,0.369-0.381,0.737-0.872,0.76
			C445.823,78.781,446.121,78.537,446.659,78.568z"/>
		<path fill-rule="evenodd" clip-rule="evenodd" fill="#00598D" d="M316.074,169.115c-0.275,0.278-0.551,0.556-0.827,0.834
			C315.242,169.394,315.512,169.11,316.074,169.115z"/>
		<path fill-rule="evenodd" clip-rule="evenodd" fill="#00598D" d="M310.866,174.726c-0.067,0.316,0.033,0.718-0.43,0.828
			C310.431,175.202,310.488,174.88,310.866,174.726z"/>
		<path fill-rule="evenodd" clip-rule="evenodd" fill="#00598D" d="M314.076,171.12c-0.074,0.314,0.028,0.721-0.436,0.829
			C313.636,171.595,313.695,171.273,314.076,171.12z"/>
		<path fill-rule="evenodd" clip-rule="evenodd" fill="#FEFEFE" d="M539.574,523.858c-9.461,1.027-18.959,1.157-28.439,0.832
			c-11.581-0.398-22.906-2.329-33.676-6.909c-5.478-2.329-10.437-5.497-15.273-8.896c-2.087-1.468-2.587-3.747-3.229-6.061
			c-0.902-3.247,0.307-5.552,2.747-7.347c2.775-2.044,5.747-3.642,9.414-2.34c1.512,0.536,2.308,1.916,3.527,2.804
			c7.22,5.263,15.318,8.321,24.035,10.012c5.345,1.038,10.69,1.71,16.137,2.098c6.353,0.453,12.693,0.8,19.045,0.636
			c5.708-0.148,11.383-0.829,17.067-1.458c5.528-0.611,10.927-1.641,16.339-2.852c9.472-2.12,18.198-5.951,26.447-10.945
			c1.546-0.936,2.855-2.229,4.667-2.76c2.312-0.675,2.729-0.409,3.63,1.849c2.486,6.234,0.405,9.051-4.962,12.593
			c-11.858,7.824-24.74,13.322-38.62,16.421c-4.723,1.054-9.476,1.849-14.333,2.083C542.602,523.69,541.091,523.943,539.574,523.858
			z"/>
		<path fill-rule="evenodd" clip-rule="evenodd" fill="#FEFEFE" d="M557.025,435.869c4.905-0.21,9.632,0.291,14.32,1.53
			c4.646,1.228,8.49,3.409,11.4,7.364c3.207,4.36,6.407,8.713,8.173,13.875c1.695,4.953,0.134,8.577-4.327,10.757
			c-2.241,1.095-3.743,0.583-5.054-1.662c-1.469-2.518-2.98-5.003-4.095-7.716c-1.864-4.537-5.721-6.52-10.148-7.764
			c-5.122-1.441-10.386-2.178-15.619-1.518c-8.66,1.093-17.23,2.639-23.981,9.067c-3.371,3.209-7,6.163-10.65,9.056
			c-1.963,1.556-4.123,2.873-6.89,1.427c-3.475-1.818-4.561-6.78-2.2-9.935c3.705-4.951,8.517-8.692,13.346-12.395
			c3.497-2.683,6.982-5.439,11.029-7.312c4.441-2.054,9.069-3.386,13.943-4.063C549.883,436.079,553.469,435.718,557.025,435.869z"
			/>
	</g>
	<g>
		<path fill="#FFFFFF" stroke="#004975" stroke-width="3" stroke-miterlimit="10" d="M569.495,367.178
			c-22.034-25.749-44.04-51.524-66.111-77.242c-19.077-22.229-38.229-44.394-57.22-66.438c2.466-6.075,5.427-6.849,11.092-3.578
			c31.398,18.125,63.051,35.805,95.061,53.887c78.12-105.854,164.856-202.59,280.321-271.796c0.801,1.457,1.388,2.617,2.063,3.723
			c0.68,1.117,1.449,2.18,2.7,4.04c-112.956,100.347-197.23,221.978-262.653,357.404
			C572.996,367.178,571.246,367.178,569.495,367.178z"/>
	</g>
</g>
</svg>
